<?xml version="1.0" encoding="UTF-8" standalone="no"?>
<!DOCTYPE svg PUBLIC "-//W3C//DTD SVG 1.1//EN"
 "http://www.w3.org/Graphics/SVG/1.1/DTD/svg11.dtd">
<!-- Generated by graphviz version 2.43.0 (0)
 -->
<!-- Title: %3 Pages: 1 -->
<svg width="2219pt" height="2880pt"
 viewBox="0.00 0.00 2218.56 2880.00" xmlns="http://www.w3.org/2000/svg" xmlns:xlink="http://www.w3.org/1999/xlink">
<g id="graph0" class="graph" transform="scale(0.41 0.41) rotate(0) translate(4 7039.73)">
<title>%3</title>
<polygon fill="white" stroke="transparent" points="-4,4 -4,-7039.73 5422.02,-7039.73 5422.02,4 -4,4"/>
<!-- Назначена на вторую линию -->
<g id="node1" class="node">
<title>Назначена на вторую линию</title>
<polygon fill="lightblue" stroke="black" points="5418.02,-1389.11 5190.02,-1389.11 5190.02,-1353.11 5418.02,-1353.11 5418.02,-1389.11"/>
<text text-anchor="middle" x="5304.02" y="-1367.41" font-family="Times,serif" font-size="14.00">Назначена на вторую линию</text>
</g>
<!-- ПРОВЕРКА В МИДДЛ -->
<g id="node2" class="node">
<title>ПРОВЕРКА В МИДДЛ</title>
<polygon fill="lightblue" stroke="black" points="182,-121.11 0,-121.11 0,-85.11 182,-85.11 182,-121.11"/>
<text text-anchor="middle" x="91" y="-99.41" font-family="Times,serif" font-size="14.00">ПРОВЕРКА В МИДДЛ</text>
</g>
<!-- p2 -->
<g id="node15" class="node">
<title>p2</title>
<ellipse fill="lightgreen" stroke="black" cx="2958.4" cy="-362.11" rx="268.9" ry="268.9"/>
<text text-anchor="middle" x="2958.4" y="-365.91" font-family="Times,serif" font-size="14.00">in: КРЕДИТНЫЙ АНАЛИЗ,ПРОВЕРКА В МИДДЛ</text>
<text text-anchor="middle" x="2958.4" y="-350.91" font-family="Times,serif" font-size="14.00">out: ОТПРАВЛЕНО В БАНК</text>
</g>
<!-- ПРОВЕРКА В МИДДЛ&#45;&gt;p2 -->
<g id="edge8" class="edge">
<title>ПРОВЕРКА В МИДДЛ&#45;&gt;p2</title>
<path fill="none" stroke="black" d="M182.23,-103.11C326.96,-103.11 619.94,-103.11 868.24,-103.11 868.24,-103.11 868.24,-103.11 1277.54,-103.11 1779.89,-103.11 2356.97,-217.64 2687.26,-294.38"/>
<polygon fill="black" stroke="black" points="2686.91,-297.9 2697.44,-296.76 2688.5,-291.08 2686.91,-297.9"/>
</g>
<!-- p4 -->
<g id="node17" class="node">
<title>p4</title>
<ellipse fill="lightgreen" stroke="black" cx="3966.3" cy="-345.11" rx="285.84" ry="285.84"/>
<text text-anchor="middle" x="3966.3" y="-348.91" font-family="Times,serif" font-size="14.00">in: ВОЗВРАТ НА ДОРАБОТКУ,ПРОВЕРКА В МИДДЛ</text>
<text text-anchor="middle" x="3966.3" y="-333.91" font-family="Times,serif" font-size="14.00">out: ОТПРАВЛЕНО В БАНК</text>
</g>
<!-- ПРОВЕРКА В МИДДЛ&#45;&gt;p4 -->
<g id="edge14" class="edge">
<title>ПРОВЕРКА В МИДДЛ&#45;&gt;p4</title>
<path fill="none" stroke="black" d="M182.16,-95.83C326.79,-84.8 619.64,-65.11 868.24,-65.11 868.24,-65.11 868.24,-65.11 2429.18,-65.11 2842.35,-65.11 2954.82,3.38 3358.63,-84.11 3476.63,-109.68 3600.21,-158.37 3704.8,-206.85"/>
<polygon fill="black" stroke="black" points="3703.36,-210.03 3713.9,-211.08 3706.31,-203.69 3703.36,-210.03"/>
</g>
<!-- p18 -->
<g id="node31" class="node">
<title>p18</title>
<ellipse fill="lightgreen" stroke="black" cx="483.87" cy="-397.11" rx="265.74" ry="265.74"/>
<text text-anchor="middle" x="483.87" y="-400.91" font-family="Times,serif" font-size="14.00">in: ПРОВЕРКА В МИДДЛ</text>
<text text-anchor="middle" x="483.87" y="-385.91" font-family="Times,serif" font-size="14.00">out: ВОЗВРАТ КЛИЕНТУ,ОТПРАВЛЕНО В БАНК</text>
</g>
<!-- ПРОВЕРКА В МИДДЛ&#45;&gt;p18 -->
<g id="edge55" class="edge">
<title>ПРОВЕРКА В МИДДЛ&#45;&gt;p18</title>
<path fill="none" stroke="black" d="M116.16,-121.28C146.9,-144.4 203.19,-186.74 262.59,-231.42"/>
<polygon fill="black" stroke="black" points="260.51,-234.24 270.61,-237.45 264.72,-228.64 260.51,-234.24"/>
</g>
<!-- ЧЕРНОВИК -->
<g id="node3" class="node">
<title>ЧЕРНОВИК</title>
<polygon fill="lightblue" stroke="black" points="4433.97,-5095.11 4329.97,-5095.11 4329.97,-5059.11 4433.97,-5059.11 4433.97,-5095.11"/>
<text text-anchor="middle" x="4381.97" y="-5073.41" font-family="Times,serif" font-size="14.00">ЧЕРНОВИК</text>
</g>
<!-- p5 -->
<g id="node18" class="node">
<title>p5</title>
<ellipse fill="lightgreen" stroke="black" cx="4832.99" cy="-4350.11" rx="168.08" ry="168.08"/>
<text text-anchor="middle" x="4832.99" y="-4353.91" font-family="Times,serif" font-size="14.00">in: ЧЕРНОВИК</text>
<text text-anchor="middle" x="4832.99" y="-4338.91" font-family="Times,serif" font-size="14.00">out: ОТПРАВЛЕНО В МИДДЛ</text>
</g>
<!-- ЧЕРНОВИК&#45;&gt;p5 -->
<g id="edge17" class="edge">
<title>ЧЕРНОВИК&#45;&gt;p5</title>
<path fill="none" stroke="black" d="M4394.29,-5058.78C4441.37,-4982.55 4624.48,-4686.09 4738.42,-4501.61"/>
<polygon fill="black" stroke="black" points="4741.52,-4503.26 4743.79,-4492.92 4735.56,-4499.58 4741.52,-4503.26"/>
</g>
<!-- КРЕДИТ ОДОБРЕН -->
<g id="node4" class="node">
<title>КРЕДИТ ОДОБРЕН</title>
<polygon fill="lightblue" stroke="black" points="4462.47,-1389.11 4301.47,-1389.11 4301.47,-1353.11 4462.47,-1353.11 4462.47,-1389.11"/>
<text text-anchor="middle" x="4381.97" y="-1367.41" font-family="Times,serif" font-size="14.00">КРЕДИТ ОДОБРЕН</text>
</g>
<!-- p7 -->
<g id="node20" class="node">
<title>p7</title>
<ellipse fill="lightgreen" stroke="black" cx="4832.99" cy="-1991.11" rx="280.94" ry="280.94"/>
<text text-anchor="middle" x="4832.99" y="-1994.91" font-family="Times,serif" font-size="14.00">in: КРЕДИТ ОДОБРЕН,ПРИНЯТО В РАБОТУ ЦОПП</text>
<text text-anchor="middle" x="4832.99" y="-1979.91" font-family="Times,serif" font-size="14.00">out: ОТПРАВЛЕНО В МИДДЛ</text>
</g>
<!-- КРЕДИТ ОДОБРЕН&#45;&gt;p7 -->
<g id="edge23" class="edge">
<title>КРЕДИТ ОДОБРЕН&#45;&gt;p7</title>
<path fill="none" stroke="black" d="M4386.95,-1389.32C4399,-1441.56 4438.82,-1595.01 4511.97,-1701.11 4538.39,-1739.44 4570.82,-1776.23 4604.79,-1809.98"/>
<polygon fill="black" stroke="black" points="4602.48,-1812.61 4612.06,-1817.13 4607.39,-1807.62 4602.48,-1812.61"/>
</g>
<!-- p9 -->
<g id="node22" class="node">
<title>p9</title>
<ellipse fill="lightgreen" stroke="black" cx="4832.99" cy="-2619.11" rx="297.88" ry="297.88"/>
<text text-anchor="middle" x="4832.99" y="-2622.91" font-family="Times,serif" font-size="14.00">in: КРЕДИТ ОДОБРЕН,ОТКАЗ БАНКА ПО ЗАЕМЩИКУ</text>
<text text-anchor="middle" x="4832.99" y="-2607.91" font-family="Times,serif" font-size="14.00">out: ОТПРАВЛЕНО В МИДДЛ</text>
</g>
<!-- КРЕДИТ ОДОБРЕН&#45;&gt;p9 -->
<g id="edge29" class="edge">
<title>КРЕДИТ ОДОБРЕН&#45;&gt;p9</title>
<path fill="none" stroke="black" d="M4384.04,-1389.21C4390.94,-1502.48 4431.55,-2114.4 4511.97,-2281.11 4534.94,-2328.73 4567.07,-2374.09 4602.19,-2415.23"/>
<polygon fill="black" stroke="black" points="4599.59,-2417.58 4608.77,-2422.86 4604.89,-2413.01 4599.59,-2417.58"/>
</g>
<!-- p17 -->
<g id="node30" class="node">
<title>p17</title>
<ellipse fill="lightgreen" stroke="black" cx="4832.99" cy="-1371.11" rx="321.05" ry="321.05"/>
<text text-anchor="middle" x="4832.99" y="-1374.91" font-family="Times,serif" font-size="14.00">in: КРЕДИТ ОДОБРЕН</text>
<text text-anchor="middle" x="4832.99" y="-1359.91" font-family="Times,serif" font-size="14.00">out: Назначена на вторую линию,ОТПРАВЛЕНО В МИДДЛ</text>
</g>
<!-- КРЕДИТ ОДОБРЕН&#45;&gt;p17 -->
<g id="edge52" class="edge">
<title>КРЕДИТ ОДОБРЕН&#45;&gt;p17</title>
<path fill="none" stroke="black" d="M4462.47,-1371.11C4474.63,-1371.11 4487.79,-1371.11 4501.64,-1371.11"/>
<polygon fill="black" stroke="black" points="4501.84,-1374.61 4511.84,-1371.11 4501.84,-1367.61 4501.84,-1374.61"/>
</g>
<!-- ОТПРАВЛЕНО В МИДДЛ -->
<g id="node5" class="node">
<title>ОТПРАВЛЕНО В МИДДЛ</title>
<polygon fill="lightblue" stroke="black" points="5407.02,-3204.11 5201.02,-3204.11 5201.02,-3168.11 5407.02,-3168.11 5407.02,-3204.11"/>
<text text-anchor="middle" x="5304.02" y="-3182.41" font-family="Times,serif" font-size="14.00">ОТПРАВЛЕНО В МИДДЛ</text>
</g>
<!-- ПРИНЯТО В РАБОТУ ЦОПП -->
<g id="node6" class="node">
<title>ПРИНЯТО В РАБОТУ ЦОПП</title>
<polygon fill="lightblue" stroke="black" points="1868.89,-2388.11 1642.89,-2388.11 1642.89,-2352.11 1868.89,-2352.11 1868.89,-2388.11"/>
<text text-anchor="middle" x="1755.89" y="-2366.41" font-family="Times,serif" font-size="14.00">ПРИНЯТО В РАБОТУ ЦОПП</text>
</g>
<!-- p3 -->
<g id="node16" class="node">
<title>p3</title>
<ellipse fill="lightgreen" stroke="black" cx="2958.4" cy="-2370.11" rx="340.65" ry="340.65"/>
<text text-anchor="middle" x="2958.4" y="-2373.91" font-family="Times,serif" font-size="14.00">in: ПРИНЯТО В РАБОТУ ЦОПП</text>
<text text-anchor="middle" x="2958.4" y="-2358.91" font-family="Times,serif" font-size="14.00">out: ВОЗВРАТ НА ДОРАБОТКУ,ОТКАЗ БАНКА ПО ЗАЕМЩИКУ</text>
</g>
<!-- ПРИНЯТО В РАБОТУ ЦОПП&#45;&gt;p3 -->
<g id="edge12" class="edge">
<title>ПРИНЯТО В РАБОТУ ЦОПП&#45;&gt;p3</title>
<path fill="none" stroke="black" d="M1869.02,-2370.11C2035.92,-2370.11 2356.88,-2370.11 2607.2,-2370.11"/>
<polygon fill="black" stroke="black" points="2607.56,-2373.61 2617.56,-2370.11 2607.56,-2366.61 2607.56,-2373.61"/>
</g>
<!-- ПРИНЯТО В РАБОТУ ЦОПП&#45;&gt;p7 -->
<g id="edge22" class="edge">
<title>ПРИНЯТО В РАБОТУ ЦОПП&#45;&gt;p7</title>
<path fill="none" stroke="black" d="M1759.75,-2352.05C1789.15,-2169.19 2043.55,-659.11 2427.18,-659.11 2427.18,-659.11 2427.18,-659.11 3967.3,-659.11 4094.52,-659.11 4152.5,-609.8 4251.97,-689.11 4492.52,-880.92 4410.33,-1043.53 4475.97,-1344.11 4509.99,-1499.91 4440.1,-1558.76 4511.97,-1701.11 4533.58,-1743.92 4564.36,-1783.43 4598.39,-1818.63"/>
<polygon fill="black" stroke="black" points="4596.2,-1821.39 4605.7,-1826.08 4601.19,-1816.49 4596.2,-1821.39"/>
</g>
<!-- p8 -->
<g id="node21" class="node">
<title>p8</title>
<ellipse fill="lightgreen" stroke="black" cx="2958.4" cy="-6709.11" rx="264.42" ry="264.42"/>
<text text-anchor="middle" x="2958.4" y="-6712.91" font-family="Times,serif" font-size="14.00">in: ПРИНЯТО В РАБОТУ ЦОПП</text>
<text text-anchor="middle" x="2958.4" y="-6697.91" font-family="Times,serif" font-size="14.00">out: ОТКАЗ КЛИЕНТА,ОТПРАВЛЕНО В МИДДЛ</text>
</g>
<!-- ПРИНЯТО В РАБОТУ ЦОПП&#45;&gt;p8 -->
<g id="edge26" class="edge">
<title>ПРИНЯТО В РАБОТУ ЦОПП&#45;&gt;p8</title>
<path fill="none" stroke="black" d="M1762.47,-2388.16C1785.8,-2464.59 1875.98,-2769.41 1911.46,-3027.11 1962.78,-3399.94 1895.59,-3500.36 1947.46,-3873.11 2108.8,-5032.51 1895.63,-5470.09 2558.18,-6435.11 2598.4,-6493.69 2655.58,-6543.45 2714.14,-6583.84"/>
<polygon fill="black" stroke="black" points="2712.17,-6586.74 2722.41,-6589.48 2716.12,-6580.95 2712.17,-6586.74"/>
</g>
<!-- p11 -->
<g id="node24" class="node">
<title>p11</title>
<ellipse fill="lightgreen" stroke="black" cx="2958.4" cy="-5181.11" rx="295.64" ry="295.64"/>
<text text-anchor="middle" x="2958.4" y="-5184.91" font-family="Times,serif" font-size="14.00">in: ПРИНЯТО В РАБОТУ ЦОПП</text>
<text text-anchor="middle" x="2958.4" y="-5169.91" font-family="Times,serif" font-size="14.00">out: ОТКАЗ БАНКА ПО ЗАЕМЩИКУ,ОТКАЗ КЛИЕНТА</text>
</g>
<!-- ПРИНЯТО В РАБОТУ ЦОПП&#45;&gt;p11 -->
<g id="edge35" class="edge">
<title>ПРИНЯТО В РАБОТУ ЦОПП&#45;&gt;p11</title>
<path fill="none" stroke="black" d="M1761.72,-2388.29C1782.05,-2465.21 1861.85,-2771.75 1911.46,-3027.11 1931.52,-3130.4 1920.7,-3159.35 1947.46,-3261.11 2142.58,-4003.28 2099.92,-4260.58 2558.18,-4876.11 2597.26,-4928.6 2647.72,-4976.52 2699.53,-5018.04"/>
<polygon fill="black" stroke="black" points="2697.52,-5020.9 2707.52,-5024.38 2701.87,-5015.42 2697.52,-5020.9"/>
</g>
<!-- p14 -->
<g id="node27" class="node">
<title>p14</title>
<ellipse fill="lightgreen" stroke="black" cx="2122.82" cy="-3077.11" rx="175.23" ry="175.23"/>
<text text-anchor="middle" x="2122.82" y="-3080.91" font-family="Times,serif" font-size="14.00">in: ПРИНЯТО В РАБОТУ ЦОПП</text>
<text text-anchor="middle" x="2122.82" y="-3065.91" font-family="Times,serif" font-size="14.00">out: КРЕДИТНЫЙ АНАЛИЗ</text>
</g>
<!-- ПРИНЯТО В РАБОТУ ЦОПП&#45;&gt;p14 -->
<g id="edge43" class="edge">
<title>ПРИНЯТО В РАБОТУ ЦОПП&#45;&gt;p14</title>
<path fill="none" stroke="black" d="M1766.28,-2388.3C1803.61,-2460.62 1943.99,-2732.6 2036.79,-2912.38"/>
<polygon fill="black" stroke="black" points="2033.75,-2914.13 2041.45,-2921.41 2039.97,-2910.92 2033.75,-2914.13"/>
</g>
<!-- p20 -->
<g id="node33" class="node">
<title>p20</title>
<ellipse fill="lightgreen" stroke="black" cx="2958.4" cy="-1701.11" rx="309.93" ry="309.93"/>
<text text-anchor="middle" x="2958.4" y="-1704.91" font-family="Times,serif" font-size="14.00">in: ПРИНЯТО В РАБОТУ ЦОПП</text>
<text text-anchor="middle" x="2958.4" y="-1689.91" font-family="Times,serif" font-size="14.00">out: ВОЗВРАТ НА ДОРАБОТКУ,ОТПРАВЛЕНО В МИДДЛ</text>
</g>
<!-- ПРИНЯТО В РАБОТУ ЦОПП&#45;&gt;p20 -->
<g id="edge61" class="edge">
<title>ПРИНЯТО В РАБОТУ ЦОПП&#45;&gt;p20</title>
<path fill="none" stroke="black" d="M1789.31,-2352.04C1914.51,-2282.28 2374.57,-2025.9 2678.59,-1856.48"/>
<polygon fill="black" stroke="black" points="2680.51,-1859.42 2687.54,-1851.5 2677.1,-1853.31 2680.51,-1859.42"/>
</g>
<!-- ОТКАЗ КЛИЕНТА -->
<g id="node7" class="node">
<title>ОТКАЗ КЛИЕНТА</title>
<polygon fill="lightblue" stroke="black" points="3593.63,-5659.11 3445.63,-5659.11 3445.63,-5623.11 3593.63,-5623.11 3593.63,-5659.11"/>
<text text-anchor="middle" x="3519.63" y="-5637.41" font-family="Times,serif" font-size="14.00">ОТКАЗ КЛИЕНТА</text>
</g>
<!-- ВОЗВРАТ НА ДОРАБОТКУ -->
<g id="node8" class="node">
<title>ВОЗВРАТ НА ДОРАБОТКУ</title>
<polygon fill="lightblue" stroke="black" points="3625.63,-3009.11 3413.63,-3009.11 3413.63,-2973.11 3625.63,-2973.11 3625.63,-3009.11"/>
<text text-anchor="middle" x="3519.63" y="-2987.41" font-family="Times,serif" font-size="14.00">ВОЗВРАТ НА ДОРАБОТКУ</text>
</g>
<!-- p1 -->
<g id="node14" class="node">
<title>p1</title>
<ellipse fill="lightgreen" stroke="black" cx="3966.3" cy="-1059.11" rx="275.54" ry="275.54"/>
<text text-anchor="middle" x="3966.3" y="-1062.91" font-family="Times,serif" font-size="14.00">in: ВОЗВРАТ КЛИЕНТУ,ВОЗВРАТ НА ДОРАБОТКУ</text>
<text text-anchor="middle" x="3966.3" y="-1047.91" font-family="Times,serif" font-size="14.00">out: КРЕДИТ ОДОБРЕН</text>
</g>
<!-- ВОЗВРАТ НА ДОРАБОТКУ&#45;&gt;p1 -->
<g id="edge6" class="edge">
<title>ВОЗВРАТ НА ДОРАБОТКУ&#45;&gt;p1</title>
<path fill="none" stroke="black" d="M3524.81,-2972.92C3558.53,-2826.42 3787.38,-1832.12 3901.23,-1337.45"/>
<polygon fill="black" stroke="black" points="3904.65,-1338.2 3903.49,-1327.67 3897.83,-1336.63 3904.65,-1338.2"/>
</g>
<!-- ВОЗВРАТ НА ДОРАБОТКУ&#45;&gt;p4 -->
<g id="edge15" class="edge">
<title>ВОЗВРАТ НА ДОРАБОТКУ&#45;&gt;p4</title>
<path fill="none" stroke="black" d="M3520.67,-2972.84C3521.25,-2785.59 3530.64,-1213.5 3680.63,-774.11 3704.07,-705.44 3741.27,-637.18 3781.15,-575.98"/>
<polygon fill="black" stroke="black" points="3784.22,-577.67 3786.79,-567.39 3778.37,-573.82 3784.22,-577.67"/>
</g>
<!-- p21 -->
<g id="node34" class="node">
<title>p21</title>
<ellipse fill="lightgreen" stroke="black" cx="3966.3" cy="-5077.11" rx="275.54" ry="275.54"/>
<text text-anchor="middle" x="3966.3" y="-5080.91" font-family="Times,serif" font-size="14.00">in: ВОЗВРАТ КЛИЕНТУ,ВОЗВРАТ НА ДОРАБОТКУ</text>
<text text-anchor="middle" x="3966.3" y="-5065.91" font-family="Times,serif" font-size="14.00">out: ЧЕРНОВИК</text>
</g>
<!-- ВОЗВРАТ НА ДОРАБОТКУ&#45;&gt;p21 -->
<g id="edge64" class="edge">
<title>ВОЗВРАТ НА ДОРАБОТКУ&#45;&gt;p21</title>
<path fill="none" stroke="black" d="M3611.03,-3009.24C3623.81,-3015.29 3635.64,-3023.36 3644.63,-3034.11 3863.26,-3295.62 3933.98,-4293.15 3955.93,-4790.99"/>
<polygon fill="black" stroke="black" points="3952.44,-4791.36 3956.37,-4801.2 3959.43,-4791.06 3952.44,-4791.36"/>
</g>
<!-- КРЕДИТНЫЙ АНАЛИЗ -->
<g id="node9" class="node">
<title>КРЕДИТНЫЙ АНАЛИЗ</title>
<polygon fill="lightblue" stroke="black" points="2522.18,-3422.11 2334.18,-3422.11 2334.18,-3386.11 2522.18,-3386.11 2522.18,-3422.11"/>
<text text-anchor="middle" x="2428.18" y="-3400.41" font-family="Times,serif" font-size="14.00">КРЕДИТНЫЙ АНАЛИЗ</text>
</g>
<!-- p0 -->
<g id="node13" class="node">
<title>p0</title>
<ellipse fill="lightgreen" stroke="black" cx="2958.4" cy="-6162.11" rx="264.42" ry="264.42"/>
<text text-anchor="middle" x="2958.4" y="-6165.91" font-family="Times,serif" font-size="14.00">in: КРЕДИТНЫЙ АНАЛИЗ</text>
<text text-anchor="middle" x="2958.4" y="-6150.91" font-family="Times,serif" font-size="14.00">out: ОТКАЗ КЛИЕНТА,ОТПРАВЛЕНО В МИДДЛ</text>
</g>
<!-- КРЕДИТНЫЙ АНАЛИЗ&#45;&gt;p0 -->
<g id="edge3" class="edge">
<title>КРЕДИТНЫЙ АНАЛИЗ&#45;&gt;p0</title>
<path fill="none" stroke="black" d="M2430.07,-3422.22C2441.02,-3646.24 2550.16,-5873.8 2558.18,-5888.11 2593.64,-5951.42 2650.57,-6003.18 2710.47,-6043.99"/>
<polygon fill="black" stroke="black" points="2708.68,-6047.01 2718.94,-6049.68 2712.59,-6041.2 2708.68,-6047.01"/>
</g>
<!-- КРЕДИТНЫЙ АНАЛИЗ&#45;&gt;p2 -->
<g id="edge9" class="edge">
<title>КРЕДИТНЫЙ АНАЛИЗ&#45;&gt;p2</title>
<path fill="none" stroke="black" d="M2429.2,-3386C2429.5,-3164.04 2435.58,-972.09 2558.18,-716.11 2595.62,-637.94 2659.03,-569.62 2724.42,-514.39"/>
<polygon fill="black" stroke="black" points="2726.97,-516.82 2732.4,-507.72 2722.48,-511.45 2726.97,-516.82"/>
</g>
<!-- p6 -->
<g id="node19" class="node">
<title>p6</title>
<ellipse fill="lightgreen" stroke="black" cx="2958.4" cy="-3739.11" rx="309.93" ry="309.93"/>
<text text-anchor="middle" x="2958.4" y="-3742.91" font-family="Times,serif" font-size="14.00">in: КРЕДИТНЫЙ АНАЛИЗ</text>
<text text-anchor="middle" x="2958.4" y="-3727.91" font-family="Times,serif" font-size="14.00">out: ВОЗВРАТ НА ДОРАБОТКУ,ОТПРАВЛЕНО В МИДДЛ</text>
</g>
<!-- КРЕДИТНЫЙ АНАЛИЗ&#45;&gt;p6 -->
<g id="edge20" class="edge">
<title>КРЕДИТНЫЙ АНАЛИЗ&#45;&gt;p6</title>
<path fill="none" stroke="black" d="M2489.72,-3422.22C2500.75,-3426.27 2511.98,-3430.93 2522.18,-3436.11 2583.41,-3467.2 2645.9,-3505.89 2703.72,-3545.11"/>
<polygon fill="black" stroke="black" points="2701.99,-3548.16 2712.22,-3550.9 2705.93,-3542.38 2701.99,-3548.16"/>
</g>
<!-- p13 -->
<g id="node26" class="node">
<title>p13</title>
<ellipse fill="lightgreen" stroke="black" cx="2958.4" cy="-4467.11" rx="400.45" ry="400.44"/>
<text text-anchor="middle" x="2958.4" y="-4470.91" font-family="Times,serif" font-size="14.00">in: КРЕДИТНЫЙ АНАЛИЗ</text>
<text text-anchor="middle" x="2958.4" y="-4455.91" font-family="Times,serif" font-size="14.00">out: КРЕДИТ ОДОБРЕН,ОТКАЗ БАНКА ПО ЗАЕМЩИКУ,ОТКАЗ КЛИЕНТА</text>
</g>
<!-- КРЕДИТНЫЙ АНАЛИЗ&#45;&gt;p13 -->
<g id="edge41" class="edge">
<title>КРЕДИТНЫЙ АНАЛИЗ&#45;&gt;p13</title>
<path fill="none" stroke="black" d="M2507.27,-3422.39C2512.95,-3426.15 2518.06,-3430.67 2522.18,-3436.11 2605.82,-3546.45 2502.29,-3931.44 2558.18,-4058.11 2580.33,-4108.32 2611.55,-4155.92 2646.87,-4199.7"/>
<polygon fill="black" stroke="black" points="2644.24,-4202.01 2653.28,-4207.54 2649.67,-4197.58 2644.24,-4202.01"/>
</g>
<!-- p15 -->
<g id="node28" class="node">
<title>p15</title>
<ellipse fill="lightgreen" stroke="black" cx="2958.4" cy="-5687.11" rx="192.17" ry="192.17"/>
<text text-anchor="middle" x="2958.4" y="-5690.91" font-family="Times,serif" font-size="14.00">in: КРЕДИТНЫЙ АНАЛИЗ</text>
<text text-anchor="middle" x="2958.4" y="-5675.91" font-family="Times,serif" font-size="14.00">out: ОТКАЗ КЛИЕНТА,ЧЕРНОВИК</text>
</g>
<!-- КРЕДИТНЫЙ АНАЛИЗ&#45;&gt;p15 -->
<g id="edge46" class="edge">
<title>КРЕДИТНЫЙ АНАЛИЗ&#45;&gt;p15</title>
<path fill="none" stroke="black" d="M2429.79,-3422.21C2436.5,-3621.11 2497.95,-5394.81 2558.18,-5486.11 2605.35,-5557.62 2686.07,-5604.83 2762.63,-5635.4"/>
<polygon fill="black" stroke="black" points="2761.36,-5638.66 2771.95,-5639.05 2763.91,-5632.14 2761.36,-5638.66"/>
</g>
<!-- p16 -->
<g id="node29" class="node">
<title>p16</title>
<ellipse fill="lightgreen" stroke="black" cx="2958.4" cy="-3070.11" rx="340.65" ry="340.65"/>
<text text-anchor="middle" x="2958.4" y="-3073.91" font-family="Times,serif" font-size="14.00">in: КРЕДИТНЫЙ АНАЛИЗ</text>
<text text-anchor="middle" x="2958.4" y="-3058.91" font-family="Times,serif" font-size="14.00">out: ВОЗВРАТ НА ДОРАБОТКУ,ОТКАЗ БАНКА ПО ЗАЕМЩИКУ</text>
</g>
<!-- КРЕДИТНЫЙ АНАЛИЗ&#45;&gt;p16 -->
<g id="edge49" class="edge">
<title>КРЕДИТНЫЙ АНАЛИЗ&#45;&gt;p16</title>
<path fill="none" stroke="black" d="M2457.96,-3385.92C2498.8,-3360.09 2577.96,-3310.04 2661.43,-3257.26"/>
<polygon fill="black" stroke="black" points="2663.46,-3260.11 2670.05,-3251.81 2659.72,-3254.2 2663.46,-3260.11"/>
</g>
<!-- ОТКАЗ БАНКА ПО ЗАЕМЩИКУ -->
<g id="node10" class="node">
<title>ОТКАЗ БАНКА ПО ЗАЕМЩИКУ</title>
<polygon fill="lightblue" stroke="black" points="3644.63,-3079.11 3394.63,-3079.11 3394.63,-3043.11 3644.63,-3043.11 3644.63,-3079.11"/>
<text text-anchor="middle" x="3519.63" y="-3057.41" font-family="Times,serif" font-size="14.00">ОТКАЗ БАНКА ПО ЗАЕМЩИКУ</text>
</g>
<!-- ОТКАЗ БАНКА ПО ЗАЕМЩИКУ&#45;&gt;p9 -->
<g id="edge28" class="edge">
<title>ОТКАЗ БАНКА ПО ЗАЕМЩИКУ&#45;&gt;p9</title>
<path fill="none" stroke="black" d="M3574.07,-3043.1C3734.72,-2988.95 4221.82,-2824.77 4540.61,-2717.32"/>
<polygon fill="black" stroke="black" points="4542.11,-2720.51 4550.47,-2714 4539.87,-2713.88 4542.11,-2720.51"/>
</g>
<!-- ВОЗВРАТ КЛИЕНТУ -->
<g id="node11" class="node">
<title>ВОЗВРАТ КЛИЕНТУ</title>
<polygon fill="lightblue" stroke="black" points="952.74,-1218.11 785.74,-1218.11 785.74,-1182.11 952.74,-1182.11 952.74,-1218.11"/>
<text text-anchor="middle" x="869.24" y="-1196.41" font-family="Times,serif" font-size="14.00">ВОЗВРАТ КЛИЕНТУ</text>
</g>
<!-- ВОЗВРАТ КЛИЕНТУ&#45;&gt;p1 -->
<g id="edge5" class="edge">
<title>ВОЗВРАТ КЛИЕНТУ&#45;&gt;p1</title>
<path fill="none" stroke="black" d="M875.77,-1181.91C888.85,-1141.71 925.47,-1044.62 988.74,-990.11 1264.94,-752.16 1390.33,-697.11 1754.89,-697.11 1754.89,-697.11 1754.89,-697.11 2429.18,-697.11 2635.77,-697.11 3159.39,-661.51 3358.63,-716.11 3490.99,-752.39 3625.15,-823.86 3733.54,-892.21"/>
<polygon fill="black" stroke="black" points="3731.97,-895.36 3742.29,-897.75 3735.72,-889.44 3731.97,-895.36"/>
</g>
<!-- p10 -->
<g id="node23" class="node">
<title>p10</title>
<ellipse fill="lightgreen" stroke="black" cx="2958.4" cy="-1030.11" rx="304.53" ry="304.53"/>
<text text-anchor="middle" x="2958.4" y="-1033.91" font-family="Times,serif" font-size="14.00">in: ВОЗВРАТ КЛИЕНТУ</text>
<text text-anchor="middle" x="2958.4" y="-1018.91" font-family="Times,serif" font-size="14.00">out: КРЕДИТ ОДОБРЕН,ОТКАЗ БАНКА ПО ЗАЕМЩИКУ</text>
</g>
<!-- ВОЗВРАТ КЛИЕНТУ&#45;&gt;p10 -->
<g id="edge32" class="edge">
<title>ВОЗВРАТ КЛИЕНТУ&#45;&gt;p10</title>
<path fill="none" stroke="black" d="M879.71,-1182.05C896.8,-1151.64 935.96,-1091.07 988.74,-1066.11 1296.79,-920.48 1414.15,-1038.11 1754.89,-1038.11 1754.89,-1038.11 1754.89,-1038.11 2123.82,-1038.11 2295.53,-1038.11 2487.13,-1036.39 2643.3,-1034.55"/>
<polygon fill="black" stroke="black" points="2643.57,-1038.05 2653.53,-1034.43 2643.49,-1031.05 2643.57,-1038.05"/>
</g>
<!-- p12 -->
<g id="node25" class="node">
<title>p12</title>
<ellipse fill="lightgreen" stroke="black" cx="1755.89" cy="-3192.11" rx="155.63" ry="155.63"/>
<text text-anchor="middle" x="1755.89" y="-3195.91" font-family="Times,serif" font-size="14.00">in: ВОЗВРАТ КЛИЕНТУ</text>
<text text-anchor="middle" x="1755.89" y="-3180.91" font-family="Times,serif" font-size="14.00">out: КРЕДИТНЫЙ АНАЛИЗ</text>
</g>
<!-- ВОЗВРАТ КЛИЕНТУ&#45;&gt;p12 -->
<g id="edge37" class="edge">
<title>ВОЗВРАТ КЛИЕНТУ&#45;&gt;p12</title>
<path fill="none" stroke="black" d="M873.53,-1218.51C885.07,-1281.48 926.48,-1493.66 988.74,-1660.11 1187.94,-2192.67 1516.97,-2784.32 1670.77,-3049.71"/>
<polygon fill="black" stroke="black" points="1667.9,-3051.73 1675.95,-3058.62 1673.96,-3048.22 1667.9,-3051.73"/>
</g>
<!-- p19 -->
<g id="node32" class="node">
<title>p19</title>
<ellipse fill="lightgreen" stroke="black" cx="1276.54" cy="-1363.11" rx="287.59" ry="287.59"/>
<text text-anchor="middle" x="1276.54" y="-1366.91" font-family="Times,serif" font-size="14.00">in: ВОЗВРАТ КЛИЕНТУ</text>
<text text-anchor="middle" x="1276.54" y="-1351.91" font-family="Times,serif" font-size="14.00">out: КРЕДИТ ОДОБРЕН,ПРИНЯТО В РАБОТУ ЦОПП</text>
</g>
<!-- ВОЗВРАТ КЛИЕНТУ&#45;&gt;p19 -->
<g id="edge58" class="edge">
<title>ВОЗВРАТ КЛИЕНТУ&#45;&gt;p19</title>
<path fill="none" stroke="black" d="M915.17,-1218.18C937.77,-1227.27 967.23,-1239.12 999.56,-1252.12"/>
<polygon fill="black" stroke="black" points="998.63,-1255.52 1009.22,-1256 1001.24,-1249.02 998.63,-1255.52"/>
</g>
<!-- ВОЗВРАТ КЛИЕНТУ&#45;&gt;p21 -->
<g id="edge63" class="edge">
<title>ВОЗВРАТ КЛИЕНТУ&#45;&gt;p21</title>
<path fill="none" stroke="black" d="M871,-1218.33C885.91,-1573.46 1124.22,-7001.11 1754.89,-7001.11 1754.89,-7001.11 1754.89,-7001.11 2959.4,-7001.11 3137.04,-7001.11 3217.76,-7090.32 3358.63,-6982.11 3618.85,-6782.22 3825.61,-5838.45 3915.94,-5358.65"/>
<polygon fill="black" stroke="black" points="3919.38,-5359.28 3917.79,-5348.81 3912.5,-5357.99 3919.38,-5359.28"/>
</g>
<!-- ОТПРАВЛЕНО В БАНК -->
<g id="node12" class="node">
<title>ОТПРАВЛЕНО В БАНК</title>
<polygon fill="lightblue" stroke="black" points="4475.97,-49.11 4287.97,-49.11 4287.97,-13.11 4475.97,-13.11 4475.97,-49.11"/>
<text text-anchor="middle" x="4381.97" y="-27.41" font-family="Times,serif" font-size="14.00">ОТПРАВЛЕНО В БАНК</text>
</g>
<!-- p0&#45;&gt;ОТПРАВЛЕНО В МИДДЛ -->
<g id="edge2" class="edge">
<title>p0&#45;&gt;ОТПРАВЛЕНО В МИДДЛ</title>
<path fill="none" stroke="black" d="M3208.81,-6076.66C3410.4,-6015.2 3702.79,-5943.11 3965.3,-5943.11 3965.3,-5943.11 3965.3,-5943.11 4382.97,-5943.11 5099.56,-5943.11 4939.08,-5210.7 5154.02,-4527.11 5235.15,-4269.1 5291.16,-3385.37 5301.35,-3214.75"/>
<polygon fill="black" stroke="black" points="5304.85,-3214.75 5301.95,-3204.56 5297.87,-3214.33 5304.85,-3214.75"/>
</g>
<!-- p0&#45;&gt;ОТКАЗ КЛИЕНТА -->
<g id="edge1" class="edge">
<title>p0&#45;&gt;ОТКАЗ КЛИЕНТА</title>
<path fill="none" stroke="black" d="M3187.01,-6028.63C3246.59,-5987.83 3308.19,-5939.91 3358.63,-5888.11 3426.15,-5818.76 3481.36,-5716.78 3505.5,-5668.45"/>
<polygon fill="black" stroke="black" points="3508.75,-5669.77 3510.04,-5659.25 3502.47,-5666.67 3508.75,-5669.77"/>
</g>
<!-- p1&#45;&gt;КРЕДИТ ОДОБРЕН -->
<g id="edge4" class="edge">
<title>p1&#45;&gt;КРЕДИТ ОДОБРЕН</title>
<path fill="none" stroke="black" d="M4186.85,-1224.7C4250.58,-1272.77 4312.7,-1319.62 4348.87,-1346.9"/>
<polygon fill="black" stroke="black" points="4346.97,-1349.85 4357.06,-1353.08 4351.18,-1344.26 4346.97,-1349.85"/>
</g>
<!-- p2&#45;&gt;ОТПРАВЛЕНО В БАНК -->
<g id="edge7" class="edge">
<title>p2&#45;&gt;ОТПРАВЛЕНО В БАНК</title>
<path fill="none" stroke="black" d="M3194.56,-233.19C3331.93,-164.92 3511.12,-87.61 3680.63,-50.11 3888.6,-4.11 4139.75,-12.15 4277.7,-21.83"/>
<polygon fill="black" stroke="black" points="4277.61,-25.33 4287.84,-22.55 4278.11,-18.35 4277.61,-25.33"/>
</g>
<!-- p3&#45;&gt;ВОЗВРАТ НА ДОРАБОТКУ -->
<g id="edge11" class="edge">
<title>p3&#45;&gt;ВОЗВРАТ НА ДОРАБОТКУ</title>
<path fill="none" stroke="black" d="M3236.9,-2566.74C3284.12,-2612.04 3327.79,-2663.7 3358.63,-2720.11 3410.15,-2814.37 3322.68,-2879.34 3394.63,-2959.11 3397.77,-2962.6 3401.23,-2965.72 3404.95,-2968.53"/>
<polygon fill="black" stroke="black" points="3403.19,-2971.56 3413.46,-2974.17 3407.06,-2965.72 3403.19,-2971.56"/>
</g>
<!-- p3&#45;&gt;ОТКАЗ БАНКА ПО ЗАЕМЩИКУ -->
<g id="edge10" class="edge">
<title>p3&#45;&gt;ОТКАЗ БАНКА ПО ЗАЕМЩИКУ</title>
<path fill="none" stroke="black" d="M3237.71,-2565.55C3285.02,-2611.02 3328.51,-2663.05 3358.63,-2720.11 3420.89,-2838.1 3310.88,-2914.26 3394.63,-3018.11 3401.24,-3026.31 3409.5,-3032.95 3418.61,-3038.33"/>
<polygon fill="black" stroke="black" points="3417.11,-3041.49 3427.58,-3043.11 3420.4,-3035.31 3417.11,-3041.49"/>
</g>
<!-- p4&#45;&gt;ОТПРАВЛЕНО В БАНК -->
<g id="edge13" class="edge">
<title>p4&#45;&gt;ОТПРАВЛЕНО В БАНК</title>
<path fill="none" stroke="black" d="M4194.4,-172.73C4255.4,-126.43 4314.02,-81.93 4348.77,-55.55"/>
<polygon fill="black" stroke="black" points="4351.23,-58.08 4357.08,-49.24 4347,-52.5 4351.23,-58.08"/>
</g>
<!-- p5&#45;&gt;ОТПРАВЛЕНО В МИДДЛ -->
<g id="edge16" class="edge">
<title>p5&#45;&gt;ОТПРАВЛЕНО В МИДДЛ</title>
<path fill="none" stroke="black" d="M4896.76,-4194.34C5009.4,-3914.8 5239.06,-3344.85 5291.98,-3213.52"/>
<polygon fill="black" stroke="black" points="5295.26,-3214.75 5295.75,-3204.17 5288.76,-3212.13 5295.26,-3214.75"/>
</g>
<!-- p6&#45;&gt;ОТПРАВЛЕНО В МИДДЛ -->
<g id="edge18" class="edge">
<title>p6&#45;&gt;ОТПРАВЛЕНО В МИДДЛ</title>
<path fill="none" stroke="black" d="M3237.08,-3603.74C3435.2,-3519.51 3710.58,-3427.11 3965.3,-3427.11 3965.3,-3427.11 3965.3,-3427.11 4382.97,-3427.11 4726.43,-3427.11 5119.17,-3268 5254.35,-3208.35"/>
<polygon fill="black" stroke="black" points="5255.92,-3211.48 5263.64,-3204.23 5253.08,-3205.08 5255.92,-3211.48"/>
</g>
<!-- p6&#45;&gt;ВОЗВРАТ НА ДОРАБОТКУ -->
<g id="edge19" class="edge">
<title>p6&#45;&gt;ВОЗВРАТ НА ДОРАБОТКУ</title>
<path fill="none" stroke="black" d="M3223.39,-3578.37C3276.51,-3533.73 3325.98,-3480.62 3358.63,-3420.11 3399.54,-3344.29 3341.47,-3101.9 3394.63,-3034.11 3400.95,-3026.04 3408.89,-3019.48 3417.67,-3014.15"/>
<polygon fill="black" stroke="black" points="3419.6,-3017.08 3426.7,-3009.21 3416.25,-3010.94 3419.6,-3017.08"/>
</g>
<!-- p7&#45;&gt;ОТПРАВЛЕНО В МИДДЛ -->
<g id="edge21" class="edge">
<title>p7&#45;&gt;ОТПРАВЛЕНО В МИДДЛ</title>
<path fill="none" stroke="black" d="M5050,-2169.99C5090.08,-2212.69 5127.59,-2260.89 5154.02,-2312.11 5233.49,-2466.11 5288.43,-3025.37 5300.52,-3157.84"/>
<polygon fill="black" stroke="black" points="5297.05,-3158.34 5301.43,-3167.98 5304.02,-3157.7 5297.05,-3158.34"/>
</g>
<!-- p8&#45;&gt;ОТПРАВЛЕНО В МИДДЛ -->
<g id="edge25" class="edge">
<title>p8&#45;&gt;ОТПРАВЛЕНО В МИДДЛ</title>
<path fill="none" stroke="black" d="M3186.72,-6575.64C3385.29,-6471.75 3684.87,-6345.11 3965.3,-6345.11 3965.3,-6345.11 3965.3,-6345.11 4382.97,-6345.11 4981.09,-6345.11 4953.87,-5805.75 5154.02,-5242.11 5295.35,-4844.12 5302.73,-3432.38 5303.02,-3214.45"/>
<polygon fill="black" stroke="black" points="5306.52,-3214.18 5303.03,-3204.18 5299.52,-3214.18 5306.52,-3214.18"/>
</g>
<!-- p8&#45;&gt;ОТКАЗ КЛИЕНТА -->
<g id="edge24" class="edge">
<title>p8&#45;&gt;ОТКАЗ КЛИЕНТА</title>
<path fill="none" stroke="black" d="M3195.01,-6590.94C3256.72,-6549.51 3317.43,-6497.44 3358.63,-6435.11 3402.32,-6369.01 3493.12,-5803.71 3514.19,-5669.58"/>
<polygon fill="black" stroke="black" points="3517.71,-5669.73 3515.8,-5659.31 3510.79,-5668.64 3517.71,-5669.73"/>
</g>
<!-- p9&#45;&gt;ОТПРАВЛЕНО В МИДДЛ -->
<g id="edge27" class="edge">
<title>p9&#45;&gt;ОТПРАВЛЕНО В МИДДЛ</title>
<path fill="none" stroke="black" d="M5054.5,-2818.48C5089.52,-2854.45 5124.04,-2892.75 5154.02,-2931.11 5213.84,-3007.64 5266.72,-3110.55 5290.18,-3158.89"/>
<polygon fill="black" stroke="black" points="5287.11,-3160.58 5294.6,-3168.07 5293.41,-3157.55 5287.11,-3160.58"/>
</g>
<!-- p10&#45;&gt;КРЕДИТ ОДОБРЕН -->
<g id="edge31" class="edge">
<title>p10&#45;&gt;КРЕДИТ ОДОБРЕН</title>
<path fill="none" stroke="black" d="M3237.29,-906.45C3368.86,-854.46 3529.88,-800.07 3680.63,-774.11 3930.87,-731.02 4054.36,-614.64 4251.97,-774.11 4342.62,-847.27 4372.69,-1234.57 4379.39,-1342.92"/>
<polygon fill="black" stroke="black" points="4375.91,-1343.31 4380,-1353.08 4382.89,-1342.89 4375.91,-1343.31"/>
</g>
<!-- p10&#45;&gt;ОТКАЗ БАНКА ПО ЗАЕМЩИКУ -->
<g id="edge30" class="edge">
<title>p10&#45;&gt;ОТКАЗ БАНКА ПО ЗАЕМЩИКУ</title>
<path fill="none" stroke="black" d="M3213.32,-1197.74C3271.52,-1249.45 3325.86,-1311.62 3358.63,-1382.11 3396.94,-1464.55 3341.1,-2944.63 3394.63,-3018.11 3400.45,-3026.11 3407.87,-3032.63 3416.17,-3037.95"/>
<polygon fill="black" stroke="black" points="3414.69,-3041.13 3425.1,-3043.06 3418.16,-3035.06 3414.69,-3041.13"/>
</g>
<!-- p11&#45;&gt;ОТКАЗ КЛИЕНТА -->
<g id="edge33" class="edge">
<title>p11&#45;&gt;ОТКАЗ КЛИЕНТА</title>
<path fill="none" stroke="black" d="M3197.1,-5355.45C3251.16,-5397.08 3307.65,-5442.21 3358.63,-5486.11 3408.61,-5529.15 3463,-5583.64 3493.75,-5615.22"/>
<polygon fill="black" stroke="black" points="3491.57,-5617.99 3501.04,-5622.73 3496.59,-5613.12 3491.57,-5617.99"/>
</g>
<!-- p11&#45;&gt;ОТКАЗ БАНКА ПО ЗАЕМЩИКУ -->
<g id="edge34" class="edge">
<title>p11&#45;&gt;ОТКАЗ БАНКА ПО ЗАЕМЩИКУ</title>
<path fill="none" stroke="black" d="M3215.74,-5035.57C3271.76,-4991.59 3324.45,-4938.2 3358.63,-4876.11 3448.63,-4712.6 3508.68,-3307.83 3517.5,-3089.56"/>
<polygon fill="black" stroke="black" points="3521.01,-3089.4 3517.91,-3079.27 3514.01,-3089.12 3521.01,-3089.4"/>
</g>
<!-- p12&#45;&gt;КРЕДИТНЫЙ АНАЛИЗ -->
<g id="edge36" class="edge">
<title>p12&#45;&gt;КРЕДИТНЫЙ АНАЛИЗ</title>
<path fill="none" stroke="black" d="M1901.99,-3245.63C1917.3,-3250.98 1932.67,-3256.24 1947.46,-3261.11 2089.75,-3308.04 2257.95,-3356.61 2352.64,-3383.33"/>
<polygon fill="black" stroke="black" points="2351.84,-3386.74 2362.41,-3386.09 2353.73,-3380.01 2351.84,-3386.74"/>
</g>
<!-- p13&#45;&gt;КРЕДИТ ОДОБРЕН -->
<g id="edge40" class="edge">
<title>p13&#45;&gt;КРЕДИТ ОДОБРЕН</title>
<path fill="none" stroke="black" d="M3253.13,-4196.03C3291.66,-4152.29 3328.25,-4105.67 3358.63,-4058.11 3993.09,-3064.84 4326.94,-1617.75 4374.92,-1399.19"/>
<polygon fill="black" stroke="black" points="4378.39,-1399.69 4377.1,-1389.18 4371.55,-1398.2 4378.39,-1399.69"/>
</g>
<!-- p13&#45;&gt;ОТКАЗ КЛИЕНТА -->
<g id="edge38" class="edge">
<title>p13&#45;&gt;ОТКАЗ КЛИЕНТА</title>
<path fill="none" stroke="black" d="M3258.6,-4732.37C3296.71,-4777.19 3331.73,-4825.65 3358.63,-4876.11 3497.79,-5137.18 3515.96,-5508.47 3518.29,-5612.85"/>
<polygon fill="black" stroke="black" points="3514.8,-5612.98 3518.49,-5622.91 3521.8,-5612.85 3514.8,-5612.98"/>
</g>
<!-- p13&#45;&gt;ОТКАЗ БАНКА ПО ЗАЕМЩИКУ -->
<g id="edge39" class="edge">
<title>p13&#45;&gt;ОТКАЗ БАНКА ПО ЗАЕМЩИКУ</title>
<path fill="none" stroke="black" d="M3260.01,-4203.84C3298.12,-4158.63 3332.76,-4109.52 3358.63,-4058.11 3403.69,-3968.55 3495.98,-3242.94 3515.11,-3089.53"/>
<polygon fill="black" stroke="black" points="3518.6,-3089.85 3516.36,-3079.49 3511.65,-3088.98 3518.6,-3089.85"/>
</g>
<!-- p14&#45;&gt;КРЕДИТНЫЙ АНАЛИЗ -->
<g id="edge42" class="edge">
<title>p14&#45;&gt;КРЕДИТНЫЙ АНАЛИЗ</title>
<path fill="none" stroke="black" d="M2242.84,-3205.41C2302.35,-3269.56 2368.9,-3341.29 2403.46,-3378.54"/>
<polygon fill="black" stroke="black" points="2400.96,-3381 2410.33,-3385.95 2406.09,-3376.24 2400.96,-3381"/>
</g>
<!-- p15&#45;&gt;ЧЕРНОВИК -->
<g id="edge44" class="edge">
<title>p15&#45;&gt;ЧЕРНОВИК</title>
<path fill="none" stroke="black" d="M3150.02,-5703.84C3289.22,-5710.78 3481.35,-5709.32 3644.63,-5668.11 3937.69,-5594.15 4042.74,-5580.24 4251.97,-5362.11 4325.26,-5285.7 4361.73,-5160.41 4374.96,-5104.98"/>
<polygon fill="black" stroke="black" points="4378.39,-5105.7 4377.23,-5095.17 4371.57,-5104.12 4378.39,-5105.7"/>
</g>
<!-- p15&#45;&gt;ОТКАЗ КЛИЕНТА -->
<g id="edge45" class="edge">
<title>p15&#45;&gt;ОТКАЗ КЛИЕНТА</title>
<path fill="none" stroke="black" d="M3150.29,-5671.41C3247.3,-5663.43 3360.2,-5654.14 3435.17,-5647.98"/>
<polygon fill="black" stroke="black" points="3435.82,-5651.44 3445.5,-5647.13 3435.24,-5644.46 3435.82,-5651.44"/>
</g>
<!-- p16&#45;&gt;ВОЗВРАТ НА ДОРАБОТКУ -->
<g id="edge48" class="edge">
<title>p16&#45;&gt;ВОЗВРАТ НА ДОРАБОТКУ</title>
<path fill="none" stroke="black" d="M3296,-3022.56C3334.2,-3017.17 3370.91,-3011.98 3403.13,-3007.43"/>
<polygon fill="black" stroke="black" points="3404.02,-3010.84 3413.43,-3005.97 3403.04,-3003.91 3404.02,-3010.84"/>
</g>
<!-- p16&#45;&gt;ОТКАЗ БАНКА ПО ЗАЕМЩИКУ -->
<g id="edge47" class="edge">
<title>p16&#45;&gt;ОТКАЗ БАНКА ПО ЗАЕМЩИКУ</title>
<path fill="none" stroke="black" d="M3299.21,-3064.64C3329.02,-3064.16 3357.88,-3063.7 3384.33,-3063.27"/>
<polygon fill="black" stroke="black" points="3384.4,-3066.77 3394.35,-3063.11 3384.29,-3059.77 3384.4,-3066.77"/>
</g>
<!-- p17&#45;&gt;Назначена на вторую линию -->
<g id="edge50" class="edge">
<title>p17&#45;&gt;Назначена на вторую линию</title>
<path fill="none" stroke="black" d="M5154.3,-1371.11C5162.92,-1371.11 5171.36,-1371.11 5179.56,-1371.11"/>
<polygon fill="black" stroke="black" points="5179.83,-1374.61 5189.83,-1371.11 5179.83,-1367.61 5179.83,-1374.61"/>
</g>
<!-- p17&#45;&gt;ОТПРАВЛЕНО В МИДДЛ -->
<g id="edge51" class="edge">
<title>p17&#45;&gt;ОТПРАВЛЕНО В МИДДЛ</title>
<path fill="none" stroke="black" d="M5076,-1581.22C5106.72,-1618.21 5134.26,-1658.59 5154.02,-1701.11 5280.96,-1974.27 5300.23,-2976.14 5302.69,-3157.77"/>
<polygon fill="black" stroke="black" points="5299.2,-3157.91 5302.83,-3167.87 5306.19,-3157.82 5299.2,-3157.91"/>
</g>
<!-- p18&#45;&gt;ВОЗВРАТ КЛИЕНТУ -->
<g id="edge54" class="edge">
<title>p18&#45;&gt;ВОЗВРАТ КЛИЕНТУ</title>
<path fill="none" stroke="black" d="M599.25,-636.68C692.64,-832.3 815.44,-1089.52 855.22,-1172.82"/>
<polygon fill="black" stroke="black" points="852.07,-1174.37 859.54,-1181.88 858.39,-1171.35 852.07,-1174.37"/>
</g>
<!-- p18&#45;&gt;ОТПРАВЛЕНО В БАНК -->
<g id="edge53" class="edge">
<title>p18&#45;&gt;ОТПРАВЛЕНО В БАНК</title>
<path fill="none" stroke="black" d="M745.78,-350.44C1137.9,-281.96 1903.09,-154.73 2558.18,-84.11 3055.22,-30.53 3180.97,-27.34 3680.63,-11.11 3934.42,-2.87 3998.79,8.4 4251.97,-11.11 4260.33,-11.76 4268.97,-12.63 4277.64,-13.66"/>
<polygon fill="black" stroke="black" points="4277.45,-17.16 4287.81,-14.93 4278.32,-10.22 4277.45,-17.16"/>
</g>
<!-- p19&#45;&gt;КРЕДИТ ОДОБРЕН -->
<g id="edge57" class="edge">
<title>p19&#45;&gt;КРЕДИТ ОДОБРЕН</title>
<path fill="none" stroke="black" d="M1564.75,-1363.11C1728.07,-1363.11 1936.4,-1363.11 2121.82,-1363.11 2121.82,-1363.11 2121.82,-1363.11 3520.63,-1363.11 3801.81,-1363.11 4134.65,-1367.44 4291.15,-1369.73"/>
<polygon fill="black" stroke="black" points="4291.15,-1373.23 4301.2,-1369.88 4291.26,-1366.23 4291.15,-1373.23"/>
</g>
<!-- p19&#45;&gt;ПРИНЯТО В РАБОТУ ЦОПП -->
<g id="edge56" class="edge">
<title>p19&#45;&gt;ПРИНЯТО В РАБОТУ ЦОПП</title>
<path fill="none" stroke="black" d="M1400.78,-1623.09C1521.35,-1877.45 1693.69,-2241.01 1741.92,-2342.74"/>
<polygon fill="black" stroke="black" points="1738.87,-2344.48 1746.32,-2352.02 1745.2,-2341.48 1738.87,-2344.48"/>
</g>
<!-- p20&#45;&gt;ОТПРАВЛЕНО В МИДДЛ -->
<g id="edge59" class="edge">
<title>p20&#45;&gt;ОТПРАВЛЕНО В МИДДЛ</title>
<path fill="none" stroke="black" d="M3210.3,-1881.52C3262.07,-1924.11 3314.28,-1971.4 3358.63,-2020.11 3689.61,-2383.65 3473.65,-2945.11 3965.3,-2945.11 3965.3,-2945.11 3965.3,-2945.11 4382.97,-2945.11 4726.43,-2945.11 5119.17,-3104.22 5254.35,-3163.88"/>
<polygon fill="black" stroke="black" points="5253.08,-3167.14 5263.64,-3168 5255.92,-3160.74 5253.08,-3167.14"/>
</g>
<!-- p20&#45;&gt;ВОЗВРАТ НА ДОРАБОТКУ -->
<g id="edge60" class="edge">
<title>p20&#45;&gt;ВОЗВРАТ НА ДОРАБОТКУ</title>
<path fill="none" stroke="black" d="M3224.8,-1859.72C3278.2,-1904.59 3327.44,-1958.34 3358.63,-2020.11 3405.68,-2113.32 3329.11,-2877.81 3394.63,-2959.11 3397.77,-2963.02 3401.33,-2966.48 3405.2,-2969.56"/>
<polygon fill="black" stroke="black" points="3403.33,-2972.52 3413.54,-2975.33 3407.31,-2966.76 3403.33,-2972.52"/>
</g>
<!-- p21&#45;&gt;ЧЕРНОВИК -->
<g id="edge62" class="edge">
<title>p21&#45;&gt;ЧЕРНОВИК</title>
<path fill="none" stroke="black" d="M4242.07,-5077.11C4270.67,-5077.11 4297.32,-5077.11 4319.47,-5077.11"/>
<polygon fill="black" stroke="black" points="4319.65,-5080.61 4329.65,-5077.11 4319.65,-5073.61 4319.65,-5080.61"/>
</g>
</g>
</svg>
