<?xml version="1.0" encoding="UTF-8" standalone="no"?>
<!DOCTYPE svg PUBLIC "-//W3C//DTD SVG 1.1//EN"
 "http://www.w3.org/Graphics/SVG/1.1/DTD/svg11.dtd">
<!-- Generated by graphviz version 2.43.0 (0)
 -->
<!-- Title: %3 Pages: 1 -->
<svg width="2066pt" height="1005pt"
 viewBox="0.00 0.00 2066.00 1004.92" xmlns="http://www.w3.org/2000/svg" xmlns:xlink="http://www.w3.org/1999/xlink">
<g id="graph0" class="graph" transform="scale(1 1) rotate(0) translate(4 1000.92)">
<title>%3</title>
<polygon fill="white" stroke="transparent" points="-4,4 -4,-1000.92 2062,-1000.92 2062,4 -4,4"/>
<!-- ВОЗВРАТ КЛИЕНТУ -->
<g id="node1" class="node">
<title>ВОЗВРАТ КЛИЕНТУ</title>
<polygon fill="lightblue" stroke="black" points="147,-217 0,-217 0,-181 147,-181 147,-217"/>
<text text-anchor="middle" x="73.5" y="-195.9" font-family="Times,serif" font-size="12.00">ВОЗВРАТ КЛИЕНТУ</text>
</g>
<!-- КРЕДИТ ОДОБРЕН -->
<g id="node3" class="node">
<title>КРЕДИТ ОДОБРЕН</title>
<polygon fill="lightblue" stroke="black" points="334,-690 193,-690 193,-654 334,-654 334,-690"/>
<text text-anchor="middle" x="263.5" y="-668.9" font-family="Times,serif" font-size="12.00">КРЕДИТ ОДОБРЕН</text>
</g>
<!-- ВОЗВРАТ КЛИЕНТУ&#45;&gt;КРЕДИТ ОДОБРЕН -->
<g id="edge1" class="edge">
<title>ВОЗВРАТ КЛИЕНТУ&#45;&gt;КРЕДИТ ОДОБРЕН</title>
<path fill="none" stroke="black" d="M81.75,-217.25C110.54,-289.68 216.84,-557.12 251.5,-644.32"/>
<polygon fill="black" stroke="black" points="248.32,-645.8 255.27,-653.8 254.83,-643.22 248.32,-645.8"/>
<text text-anchor="middle" x="170" y="-453.8" font-family="Times,serif" font-size="14.00">9</text>
</g>
<!-- КРЕДИТНЫЙ АНАЛИЗ -->
<g id="node4" class="node">
<title>КРЕДИТНЫЙ АНАЛИЗ</title>
<polygon fill="lightblue" stroke="black" points="1284,-480 1120,-480 1120,-444 1284,-444 1284,-480"/>
<text text-anchor="middle" x="1202" y="-458.9" font-family="Times,serif" font-size="12.00">КРЕДИТНЫЙ АНАЛИЗ</text>
</g>
<!-- ВОЗВРАТ КЛИЕНТУ&#45;&gt;КРЕДИТНЫЙ АНАЛИЗ -->
<g id="edge2" class="edge">
<title>ВОЗВРАТ КЛИЕНТУ&#45;&gt;КРЕДИТНЫЙ АНАЛИЗ</title>
<path fill="none" stroke="black" d="M146.07,-217.03C280.98,-250.61 582.4,-323.69 839,-372 926.9,-388.55 951.36,-379.77 1038,-402 1076.25,-411.81 1118.02,-427.29 1149.7,-440.06"/>
<polygon fill="black" stroke="black" points="1148.61,-443.4 1159.19,-443.93 1151.25,-436.92 1148.61,-443.4"/>
<text text-anchor="middle" x="628.5" y="-336.8" font-family="Times,serif" font-size="14.00">1</text>
</g>
<!-- ОТКАЗ БАНКА ПО ЗАЕМЩИКУ -->
<g id="node6" class="node">
<title>ОТКАЗ БАНКА ПО ЗАЕМЩИКУ</title>
<polygon fill="lightblue" stroke="black" points="1575,-372 1357,-372 1357,-336 1575,-336 1575,-372"/>
<text text-anchor="middle" x="1466" y="-350.9" font-family="Times,serif" font-size="12.00">ОТКАЗ БАНКА ПО ЗАЕМЩИКУ</text>
</g>
<!-- ВОЗВРАТ КЛИЕНТУ&#45;&gt;ОТКАЗ БАНКА ПО ЗАЕМЩИКУ -->
<g id="edge3" class="edge">
<title>ВОЗВРАТ КЛИЕНТУ&#45;&gt;ОТКАЗ БАНКА ПО ЗАЕМЩИКУ</title>
<path fill="none" stroke="black" d="M147.31,-182.47C182,-175.95 224.19,-170 262.5,-170 262.5,-170 262.5,-170 799,-170 1047.16,-170 1136.52,-168.52 1339,-312 1348.49,-318.73 1346.85,-325.31 1357,-331 1357.3,-331.17 1357.6,-331.33 1357.9,-331.5"/>
<polygon fill="black" stroke="black" points="1356.35,-334.64 1366.86,-335.94 1359.46,-328.37 1356.35,-334.64"/>
<text text-anchor="middle" x="711" y="-173.8" font-family="Times,serif" font-size="14.00">1</text>
</g>
<!-- ОТПРАВЛЕНО В МИДДЛ -->
<g id="node9" class="node">
<title>ОТПРАВЛЕНО В МИДДЛ</title>
<polygon fill="lightblue" stroke="black" points="1818,-235 1639,-235 1639,-199 1818,-199 1818,-235"/>
<text text-anchor="middle" x="1728.5" y="-213.9" font-family="Times,serif" font-size="12.00">ОТПРАВЛЕНО В МИДДЛ</text>
</g>
<!-- ВОЗВРАТ КЛИЕНТУ&#45;&gt;ОТПРАВЛЕНО В МИДДЛ -->
<g id="edge4" class="edge">
<title>ВОЗВРАТ КЛИЕНТУ&#45;&gt;ОТПРАВЛЕНО В МИДДЛ</title>
<path fill="none" stroke="black" d="M89.77,-180.82C119.4,-147.72 188.32,-81 262.5,-81 262.5,-81 262.5,-81 1467,-81 1562.05,-81 1656.73,-153.04 1701.23,-192.25"/>
<polygon fill="black" stroke="black" points="1698.91,-194.87 1708.69,-198.94 1703.58,-189.66 1698.91,-194.87"/>
<text text-anchor="middle" x="798" y="-84.8" font-family="Times,serif" font-size="14.00">14039</text>
</g>
<!-- ПРИНЯТО В РАБОТУ ЦОПП -->
<g id="node10" class="node">
<title>ПРИНЯТО В РАБОТУ ЦОПП</title>
<polygon fill="lightblue" stroke="black" points="1038,-691 839,-691 839,-655 1038,-655 1038,-691"/>
<text text-anchor="middle" x="938.5" y="-669.9" font-family="Times,serif" font-size="12.00">ПРИНЯТО В РАБОТУ ЦОПП</text>
</g>
<!-- ВОЗВРАТ КЛИЕНТУ&#45;&gt;ПРИНЯТО В РАБОТУ ЦОПП -->
<g id="edge5" class="edge">
<title>ВОЗВРАТ КЛИЕНТУ&#45;&gt;ПРИНЯТО В РАБОТУ ЦОПП</title>
<path fill="none" stroke="black" d="M74.03,-217.19C72.66,-314.63 80.86,-775.43 352,-911 562.12,-1016.06 830.29,-778.94 912.46,-698.49"/>
<polygon fill="black" stroke="black" points="915.17,-700.73 919.82,-691.21 910.25,-695.75 915.17,-700.73"/>
<text text-anchor="middle" x="490.5" y="-940.8" font-family="Times,serif" font-size="14.00">1</text>
</g>
<!-- ЧЕРНОВИК -->
<g id="node12" class="node">
<title>ЧЕРНОВИК</title>
<polygon fill="lightblue" stroke="black" points="757,-636 665,-636 665,-600 757,-600 757,-636"/>
<text text-anchor="middle" x="711" y="-614.9" font-family="Times,serif" font-size="12.00">ЧЕРНОВИК</text>
</g>
<!-- ВОЗВРАТ КЛИЕНТУ&#45;&gt;ЧЕРНОВИК -->
<g id="edge6" class="edge">
<title>ВОЗВРАТ КЛИЕНТУ&#45;&gt;ЧЕРНОВИК</title>
<path fill="none" stroke="black" d="M101.81,-217C203.34,-283.95 559.12,-518.52 673.96,-594.24"/>
<polygon fill="black" stroke="black" points="672.16,-597.25 682.44,-599.83 676.02,-591.4 672.16,-597.25"/>
<text text-anchor="middle" x="361.5" y="-398.8" font-family="Times,serif" font-size="14.00">3</text>
</g>
<!-- ВОЗВРАТ НА ДОРАБОТКУ -->
<g id="node2" class="node">
<title>ВОЗВРАТ НА ДОРАБОТКУ</title>
<polygon fill="lightblue" stroke="black" points="1559,-698 1373,-698 1373,-662 1559,-662 1559,-698"/>
<text text-anchor="middle" x="1466" y="-676.9" font-family="Times,serif" font-size="12.00">ВОЗВРАТ НА ДОРАБОТКУ</text>
</g>
<!-- ВОЗВРАТ НА ДОРАБОТКУ&#45;&gt;КРЕДИТ ОДОБРЕН -->
<g id="edge7" class="edge">
<title>ВОЗВРАТ НА ДОРАБОТКУ&#45;&gt;КРЕДИТ ОДОБРЕН</title>
<path fill="none" stroke="black" d="M1459.35,-698.02C1442.45,-748.41 1386.97,-890.63 1284,-945 1083.94,-1050.63 999.75,-965.88 775,-940 686.45,-929.8 465.2,-877.24 389,-831 369.38,-819.1 365.08,-813.85 352,-795 340.66,-778.65 344.54,-770.88 334,-754 321.29,-733.65 303.81,-713.05 289.56,-697.59"/>
<polygon fill="black" stroke="black" points="291.84,-694.91 282.45,-690.01 286.74,-699.7 291.84,-694.91"/>
<text text-anchor="middle" x="798" y="-948.8" font-family="Times,serif" font-size="14.00">2</text>
</g>
<!-- ОТКАЗ КЛИЕНТА -->
<g id="node7" class="node">
<title>ОТКАЗ КЛИЕНТА</title>
<polygon fill="lightblue" stroke="black" points="1793.5,-729 1663.5,-729 1663.5,-693 1793.5,-693 1793.5,-729"/>
<text text-anchor="middle" x="1728.5" y="-707.9" font-family="Times,serif" font-size="12.00">ОТКАЗ КЛИЕНТА</text>
</g>
<!-- ВОЗВРАТ НА ДОРАБОТКУ&#45;&gt;ОТКАЗ КЛИЕНТА -->
<g id="edge8" class="edge">
<title>ВОЗВРАТ НА ДОРАБОТКУ&#45;&gt;ОТКАЗ КЛИЕНТА</title>
<path fill="none" stroke="black" d="M1526.33,-661.94C1555.13,-655.7 1590.11,-651.86 1621,-659 1645.51,-664.66 1670.91,-676.78 1690.75,-687.89"/>
<polygon fill="black" stroke="black" points="1689.03,-690.95 1699.45,-692.9 1692.53,-684.88 1689.03,-690.95"/>
<text text-anchor="middle" x="1607" y="-662.8" font-family="Times,serif" font-size="14.00">273</text>
</g>
<!-- ОТПРАВЛЕНО В БАНК -->
<g id="node8" class="node">
<title>ОТПРАВЛЕНО В БАНК</title>
<polygon fill="lightblue" stroke="black" points="572.5,-665 408.5,-665 408.5,-629 572.5,-629 572.5,-665"/>
<text text-anchor="middle" x="490.5" y="-643.9" font-family="Times,serif" font-size="12.00">ОТПРАВЛЕНО В БАНК</text>
</g>
<!-- ВОЗВРАТ НА ДОРАБОТКУ&#45;&gt;ОТПРАВЛЕНО В БАНК -->
<g id="edge9" class="edge">
<title>ВОЗВРАТ НА ДОРАБОТКУ&#45;&gt;ОТПРАВЛЕНО В БАНК</title>
<path fill="none" stroke="black" d="M1433,-698.11C1408.06,-711.57 1372.19,-729.53 1339,-741 1315.35,-749.17 1308.8,-749.7 1284,-753 1147.64,-771.12 794.85,-799.39 665,-754 635.97,-743.85 628.9,-736.26 610,-712 597.52,-695.98 607.59,-683.01 592,-670 588.84,-667.37 585.44,-665.02 581.87,-662.93"/>
<polygon fill="black" stroke="black" points="583.17,-659.66 572.67,-658.25 580,-665.9 583.17,-659.66"/>
<text text-anchor="middle" x="938.5" y="-781.8" font-family="Times,serif" font-size="14.00">11257</text>
</g>
<!-- ВОЗВРАТ НА ДОРАБОТКУ&#45;&gt;ЧЕРНОВИК -->
<g id="edge10" class="edge">
<title>ВОЗВРАТ НА ДОРАБОТКУ&#45;&gt;ЧЕРНОВИК</title>
<path fill="none" stroke="black" d="M1425.38,-698.11C1401.03,-708.23 1368.87,-719.83 1339,-725 1119.76,-762.97 1057.68,-741.04 839,-700 809.58,-694.48 800.63,-694.47 775,-679 759.5,-669.64 744.8,-655.81 733.51,-643.68"/>
<polygon fill="black" stroke="black" points="735.9,-641.11 726.6,-636.02 730.7,-645.8 735.9,-641.11"/>
<text text-anchor="middle" x="1079" y="-746.8" font-family="Times,serif" font-size="14.00">2</text>
</g>
<!-- Назначена на вторую линию -->
<g id="node5" class="node">
<title>Назначена на вторую линию</title>
<polygon fill="lightblue" stroke="black" points="592,-822 389,-822 389,-786 592,-786 592,-822"/>
<text text-anchor="middle" x="490.5" y="-800.9" font-family="Times,serif" font-size="12.00">Назначена на вторую линию</text>
</g>
<!-- КРЕДИТ ОДОБРЕН&#45;&gt;Назначена на вторую линию -->
<g id="edge11" class="edge">
<title>КРЕДИТ ОДОБРЕН&#45;&gt;Назначена на вторую линию</title>
<path fill="none" stroke="black" d="M276.45,-690.27C291.51,-711.84 319.4,-747.25 352,-767 362.08,-773.1 373.17,-778.22 384.54,-782.5"/>
<polygon fill="black" stroke="black" points="383.56,-785.86 394.15,-785.9 385.89,-779.26 383.56,-785.86"/>
<text text-anchor="middle" x="361.5" y="-779.8" font-family="Times,serif" font-size="14.00">2</text>
</g>
<!-- КРЕДИТ ОДОБРЕН&#45;&gt;ОТПРАВЛЕНО В БАНК -->
<g id="edge12" class="edge">
<title>КРЕДИТ ОДОБРЕН&#45;&gt;ОТПРАВЛЕНО В БАНК</title>
<path fill="none" stroke="black" d="M334.15,-664.26C354.43,-662.01 376.89,-659.51 398.29,-657.13"/>
<polygon fill="black" stroke="black" points="398.81,-660.6 408.36,-656.02 398.03,-653.64 398.81,-660.6"/>
<text text-anchor="middle" x="361.5" y="-664.8" font-family="Times,serif" font-size="14.00">34</text>
</g>
<!-- КРЕДИТ ОДОБРЕН&#45;&gt;ОТПРАВЛЕНО В МИДДЛ -->
<g id="edge13" class="edge">
<title>КРЕДИТ ОДОБРЕН&#45;&gt;ОТПРАВЛЕНО В МИДДЛ</title>
<path fill="none" stroke="black" d="M265.64,-653.89C269.57,-604.07 286.22,-462.54 352,-370 549.13,-92.66 737.74,-127 1078,-127 1078,-127 1078,-127 1467,-127 1548.98,-127 1637.91,-167.31 1687.77,-193.98"/>
<polygon fill="black" stroke="black" points="1686.16,-197.09 1696.61,-198.79 1689.5,-190.94 1686.16,-197.09"/>
<text text-anchor="middle" x="938.5" y="-130.8" font-family="Times,serif" font-size="14.00">14</text>
</g>
<!-- КРЕДИТ ОДОБРЕН&#45;&gt;ЧЕРНОВИК -->
<g id="edge14" class="edge">
<title>КРЕДИТ ОДОБРЕН&#45;&gt;ЧЕРНОВИК</title>
<path fill="none" stroke="black" d="M294.23,-690.06C310.7,-699.25 331.86,-709.77 352,-716 477.25,-754.76 543,-795.84 647,-716 665.4,-701.87 652.92,-686.81 665,-667 670.03,-658.74 676.59,-650.65 683.13,-643.49"/>
<polygon fill="black" stroke="black" points="685.78,-645.78 690.15,-636.13 680.72,-640.95 685.78,-645.78"/>
<text text-anchor="middle" x="490.5" y="-764.8" font-family="Times,serif" font-size="14.00">10</text>
</g>
<!-- КРЕДИТНЫЙ АНАЛИЗ&#45;&gt;ВОЗВРАТ НА ДОРАБОТКУ -->
<g id="edge15" class="edge">
<title>КРЕДИТНЫЙ АНАЛИЗ&#45;&gt;ВОЗВРАТ НА ДОРАБОТКУ</title>
<path fill="none" stroke="black" d="M1246.07,-480.13C1258.77,-486.29 1272.37,-493.73 1284,-502 1348.46,-547.81 1411.48,-616.85 1443.41,-654.05"/>
<polygon fill="black" stroke="black" points="1440.96,-656.57 1450.11,-661.92 1446.29,-652.03 1440.96,-656.57"/>
<text text-anchor="middle" x="1320.5" y="-548.8" font-family="Times,serif" font-size="14.00">3329</text>
</g>
<!-- КРЕДИТНЫЙ АНАЛИЗ&#45;&gt;КРЕДИТ ОДОБРЕН -->
<g id="edge16" class="edge">
<title>КРЕДИТНЫЙ АНАЛИЗ&#45;&gt;КРЕДИТ ОДОБРЕН</title>
<path fill="none" stroke="black" d="M1119.86,-448.12C919.45,-414.71 412.82,-335.78 352,-381 309.09,-412.91 279.27,-576.75 268.72,-643.57"/>
<polygon fill="black" stroke="black" points="265.21,-643.37 267.13,-653.79 272.12,-644.45 265.21,-643.37"/>
<text text-anchor="middle" x="711" y="-397.8" font-family="Times,serif" font-size="14.00">40164</text>
</g>
<!-- КРЕДИТНЫЙ АНАЛИЗ&#45;&gt;ОТКАЗ БАНКА ПО ЗАЕМЩИКУ -->
<g id="edge17" class="edge">
<title>КРЕДИТНЫЙ АНАЛИЗ&#45;&gt;ОТКАЗ БАНКА ПО ЗАЕМЩИКУ</title>
<path fill="none" stroke="black" d="M1284.01,-445.02C1302.4,-440.11 1321.63,-434.11 1339,-427 1371.3,-413.78 1405.4,-393.59 1429.97,-377.79"/>
<polygon fill="black" stroke="black" points="1432.1,-380.58 1438.57,-372.19 1428.28,-374.72 1432.1,-380.58"/>
<text text-anchor="middle" x="1320.5" y="-443.8" font-family="Times,serif" font-size="14.00">6728</text>
</g>
<!-- КРЕДИТНЫЙ АНАЛИЗ&#45;&gt;ОТКАЗ КЛИЕНТА -->
<g id="edge18" class="edge">
<title>КРЕДИТНЫЙ АНАЛИЗ&#45;&gt;ОТКАЗ КЛИЕНТА</title>
<path fill="none" stroke="black" d="M1253.48,-480.11C1279.28,-489.66 1311.05,-501.89 1339,-514 1466.86,-569.38 1497.58,-586.33 1621,-651 1643.33,-662.7 1667.87,-676.46 1687.76,-687.86"/>
<polygon fill="black" stroke="black" points="1686.14,-690.96 1696.55,-692.91 1689.63,-684.89 1686.14,-690.96"/>
<text text-anchor="middle" x="1466" y="-628.8" font-family="Times,serif" font-size="14.00">10</text>
</g>
<!-- КРЕДИТНЫЙ АНАЛИЗ&#45;&gt;ОТПРАВЛЕНО В БАНК -->
<g id="edge19" class="edge">
<title>КРЕДИТНЫЙ АНАЛИЗ&#45;&gt;ОТПРАВЛЕНО В БАНК</title>
<path fill="none" stroke="black" d="M1119.99,-461.04C1099.11,-461.37 1076.69,-462.21 1056,-464 929.99,-474.9 895.61,-470.91 775,-509 682.97,-538.06 583.24,-592.55 530.07,-623.65"/>
<polygon fill="black" stroke="black" points="528.15,-620.72 521.31,-628.81 531.71,-626.75 528.15,-620.72"/>
<text text-anchor="middle" x="798" y="-512.8" font-family="Times,serif" font-size="14.00">29</text>
</g>
<!-- КРЕДИТНЫЙ АНАЛИЗ&#45;&gt;ОТПРАВЛЕНО В МИДДЛ -->
<g id="edge20" class="edge">
<title>КРЕДИТНЫЙ АНАЛИЗ&#45;&gt;ОТПРАВЛЕНО В МИДДЛ</title>
<path fill="none" stroke="black" d="M1216.29,-443.9C1240.58,-412.18 1295.33,-346.63 1357,-312 1403.16,-286.08 1535.54,-255.6 1628.83,-236.29"/>
<polygon fill="black" stroke="black" points="1629.78,-239.67 1638.87,-234.22 1628.37,-232.81 1629.78,-239.67"/>
<text text-anchor="middle" x="1466" y="-315.8" font-family="Times,serif" font-size="14.00">3175</text>
</g>
<!-- КРЕДИТНЫЙ АНАЛИЗ&#45;&gt;ЧЕРНОВИК -->
<g id="edge21" class="edge">
<title>КРЕДИТНЫЙ АНАЛИЗ&#45;&gt;ЧЕРНОВИК</title>
<path fill="none" stroke="black" d="M1153.8,-480.06C1117.81,-494.39 1071.82,-514.1 1056,-527 1045.39,-535.65 1049.5,-544.57 1038,-552 993.92,-580.46 848.14,-601.77 767.27,-611.74"/>
<polygon fill="black" stroke="black" points="766.76,-608.28 757.26,-612.96 767.61,-615.23 766.76,-608.28"/>
<text text-anchor="middle" x="938.5" y="-604.8" font-family="Times,serif" font-size="14.00">2</text>
</g>
<!-- ОТКАЗ БАНКА ПО ЗАЕМЩИКУ&#45;&gt;ОТПРАВЛЕНО В БАНК -->
<g id="edge22" class="edge">
<title>ОТКАЗ БАНКА ПО ЗАЕМЩИКУ&#45;&gt;ОТПРАВЛЕНО В БАНК</title>
<path fill="none" stroke="black" d="M1370.12,-335.97C1365.63,-334.44 1361.24,-332.79 1357,-331 1348.14,-327.27 1348.14,-321.98 1339,-319 1328.45,-315.55 907.82,-289.75 839,-306 808.05,-313.31 801.33,-320.17 775,-338 766.14,-344 766.25,-348.61 757,-354 697.36,-388.72 661.77,-358.37 610,-404 542.94,-463.11 510.07,-568.76 497.64,-618.99"/>
<polygon fill="black" stroke="black" points="494.21,-618.29 495.29,-628.83 501.02,-619.92 494.21,-618.29"/>
<text text-anchor="middle" x="938.5" y="-309.8" font-family="Times,serif" font-size="14.00">3</text>
</g>
<!-- ОТКАЗ БАНКА ПО ЗАЕМЩИКУ&#45;&gt;ОТПРАВЛЕНО В МИДДЛ -->
<g id="edge23" class="edge">
<title>ОТКАЗ БАНКА ПО ЗАЕМЩИКУ&#45;&gt;ОТПРАВЛЕНО В МИДДЛ</title>
<path fill="none" stroke="black" d="M1508.07,-335.86C1539.41,-321.7 1583.44,-301.12 1621,-281 1644.52,-268.4 1670.17,-253.03 1690.41,-240.52"/>
<polygon fill="black" stroke="black" points="1692.37,-243.42 1699.01,-235.16 1688.67,-237.47 1692.37,-243.42"/>
<text text-anchor="middle" x="1607" y="-297.8" font-family="Times,serif" font-size="14.00">4</text>
</g>
<!-- ОТКАЗ БАНКА ПО ЗАЕМЩИКУ&#45;&gt;ЧЕРНОВИК -->
<g id="edge24" class="edge">
<title>ОТКАЗ БАНКА ПО ЗАЕМЩИКУ&#45;&gt;ЧЕРНОВИК</title>
<path fill="none" stroke="black" d="M1392.43,-372.08C1374.94,-376.37 1356.32,-380.89 1339,-385 1241.86,-408.04 1210.58,-393.02 1120,-435 1087.74,-449.95 1079.62,-456.43 1056,-483 1045.41,-494.91 1051.03,-504.84 1038,-514 940.79,-582.32 881.81,-509.93 775,-562 759.82,-569.4 745.53,-581.5 734.41,-592.57"/>
<polygon fill="black" stroke="black" points="731.67,-590.37 727.24,-599.99 736.7,-595.23 731.67,-590.37"/>
<text text-anchor="middle" x="1079" y="-486.8" font-family="Times,serif" font-size="14.00">5</text>
</g>
<!-- ОТКАЗ КЛИЕНТА&#45;&gt;ВОЗВРАТ НА ДОРАБОТКУ -->
<g id="edge25" class="edge">
<title>ОТКАЗ КЛИЕНТА&#45;&gt;ВОЗВРАТ НА ДОРАБОТКУ</title>
<path fill="none" stroke="black" d="M1663.33,-702.34C1649.38,-700.53 1634.7,-698.66 1621,-697 1604.26,-694.98 1586.48,-692.92 1569.18,-690.98"/>
<polygon fill="black" stroke="black" points="1569.38,-687.48 1559.06,-689.85 1568.6,-694.44 1569.38,-687.48"/>
<text text-anchor="middle" x="1607" y="-700.8" font-family="Times,serif" font-size="14.00">1</text>
</g>
<!-- ОТКАЗ КЛИЕНТА&#45;&gt;ОТПРАВЛЕНО В БАНК -->
<g id="edge26" class="edge">
<title>ОТКАЗ КЛИЕНТА&#45;&gt;ОТПРАВЛЕНО В БАНК</title>
<path fill="none" stroke="black" d="M1703.08,-729.16C1658.59,-760.41 1560.28,-821 1467,-821 1078,-821 1078,-821 1078,-821 1057.98,-821 699.32,-787.76 665,-776 638.03,-766.76 626.93,-765.93 610,-743 590.15,-716.12 615.83,-693.43 592,-670 588.84,-666.89 585.35,-664.17 581.63,-661.79"/>
<polygon fill="black" stroke="black" points="583.01,-658.56 572.56,-656.83 579.66,-664.7 583.01,-658.56"/>
<text text-anchor="middle" x="1079" y="-824.8" font-family="Times,serif" font-size="14.00">15</text>
</g>
<!-- ОТПРАВЛЕНО В БАНК&#45;&gt;КРЕДИТ ОДОБРЕН -->
<g id="edge27" class="edge">
<title>ОТПРАВЛЕНО В БАНК&#45;&gt;КРЕДИТ ОДОБРЕН</title>
<path fill="none" stroke="black" d="M408.43,-637.73C389.8,-637.18 370.13,-637.88 352,-641 340.09,-643.05 327.64,-646.56 316.01,-650.49"/>
<polygon fill="black" stroke="black" points="314.7,-647.24 306.45,-653.88 317.04,-653.84 314.7,-647.24"/>
<text text-anchor="middle" x="361.5" y="-644.8" font-family="Times,serif" font-size="14.00">2</text>
</g>
<!-- ОТПРАВЛЕНО В БАНК&#45;&gt;ОТКАЗ БАНКА ПО ЗАЕМЩИКУ -->
<g id="edge28" class="edge">
<title>ОТПРАВЛЕНО В БАНК&#45;&gt;ОТКАЗ БАНКА ПО ЗАЕМЩИКУ</title>
<path fill="none" stroke="black" d="M510.38,-628.95C540.82,-600.64 603.58,-545.45 665,-511 850.83,-406.77 909.73,-394.41 1120,-360 1199.86,-346.93 1221.09,-356.36 1302,-355 1316.37,-354.76 1331.45,-354.57 1346.4,-354.43"/>
<polygon fill="black" stroke="black" points="1346.74,-357.93 1356.71,-354.34 1346.68,-350.93 1346.74,-357.93"/>
<text text-anchor="middle" x="938.5" y="-428.8" font-family="Times,serif" font-size="14.00">1</text>
</g>
<!-- ОТПРАВЛЕНО В БАНК&#45;&gt;ОТКАЗ КЛИЕНТА -->
<g id="edge29" class="edge">
<title>ОТПРАВЛЕНО В БАНК&#45;&gt;ОТКАЗ КЛИЕНТА</title>
<path fill="none" stroke="black" d="M572.93,-656.47C580.03,-659.88 586.56,-664.3 592,-670 623.17,-702.67 582.54,-734.15 610,-770 626.44,-791.46 639.14,-788.1 665,-796 842.58,-850.25 892.32,-859 1078,-859 1078,-859 1078,-859 1467,-859 1516.17,-859 1530.74,-856.42 1575,-835 1626.32,-810.17 1675.61,-764.93 1703.66,-736.5"/>
<polygon fill="black" stroke="black" points="1706.19,-738.92 1710.65,-729.31 1701.17,-734.04 1706.19,-738.92"/>
<text text-anchor="middle" x="1079" y="-862.8" font-family="Times,serif" font-size="14.00">43</text>
</g>
<!-- ОТПРАВЛЕНО В БАНК&#45;&gt;ОТПРАВЛЕНО В МИДДЛ -->
<g id="edge30" class="edge">
<title>ОТПРАВЛЕНО В БАНК&#45;&gt;ОТПРАВЛЕНО В МИДДЛ</title>
<path fill="none" stroke="black" d="M494.77,-628.72C504.18,-581.17 535.54,-452.21 610,-378 659.09,-329.08 697.58,-361.65 757,-326 766.7,-320.18 764.95,-313.2 775,-308 921.77,-232 1415.88,-219.17 1628.67,-217.22"/>
<polygon fill="black" stroke="black" points="1628.92,-220.72 1638.89,-217.13 1628.86,-213.72 1628.92,-220.72"/>
<text text-anchor="middle" x="1079" y="-249.8" font-family="Times,serif" font-size="14.00">6</text>
</g>
<!-- ОТПРАВЛЕНО В БАНК&#45;&gt;ПРИНЯТО В РАБОТУ ЦОПП -->
<g id="edge31" class="edge">
<title>ОТПРАВЛЕНО В БАНК&#45;&gt;ПРИНЯТО В РАБОТУ ЦОПП</title>
<path fill="none" stroke="black" d="M554.02,-665.04C566.8,-669.42 580,-674.45 592,-680 600.51,-683.93 601.41,-687.24 610,-691 679.84,-721.61 699.48,-727.45 775,-738 795.25,-740.83 801.21,-743.15 821,-738 851.67,-730.02 882.84,-712 905.21,-696.95"/>
<polygon fill="black" stroke="black" points="907.38,-699.71 913.63,-691.15 903.41,-693.94 907.38,-699.71"/>
<text text-anchor="middle" x="711" y="-738.8" font-family="Times,serif" font-size="14.00">70271</text>
</g>
<!-- ОТПРАВЛЕНО В БАНК&#45;&gt;ЧЕРНОВИК -->
<g id="edge32" class="edge">
<title>ОТПРАВЛЕНО В БАНК&#45;&gt;ЧЕРНОВИК</title>
<path fill="none" stroke="black" d="M572.55,-636.24C599.98,-632.6 629.96,-628.62 654.9,-625.31"/>
<polygon fill="black" stroke="black" points="655.45,-628.77 664.91,-623.99 654.53,-621.83 655.45,-628.77"/>
<text text-anchor="middle" x="628.5" y="-633.8" font-family="Times,serif" font-size="14.00">2</text>
</g>
<!-- ОТПРАВЛЕНО В МИДДЛ&#45;&gt;ВОЗВРАТ КЛИЕНТУ -->
<g id="edge33" class="edge">
<title>ОТПРАВЛЕНО В МИДДЛ&#45;&gt;ВОЗВРАТ КЛИЕНТУ</title>
<path fill="none" stroke="black" d="M1714.68,-198.95C1690.97,-167 1636.99,-100.7 1575,-67 1531.8,-43.52 1516.17,-43 1467,-43 262.5,-43 262.5,-43 262.5,-43 182.55,-43 118.4,-127.59 90.14,-172.19"/>
<polygon fill="black" stroke="black" points="87.1,-170.45 84.81,-180.8 93.05,-174.14 87.1,-170.45"/>
<text text-anchor="middle" x="798" y="-46.8" font-family="Times,serif" font-size="14.00">3</text>
</g>
<!-- ОТПРАВЛЕНО В МИДДЛ&#45;&gt;ОТПРАВЛЕНО В БАНК -->
<g id="edge34" class="edge">
<title>ОТПРАВЛЕНО В МИДДЛ&#45;&gt;ОТПРАВЛЕНО В БАНК</title>
<path fill="none" stroke="black" d="M1638.82,-211.72C1400.58,-199.58 754.93,-180.69 610,-322 524.21,-405.65 500.16,-556.33 493.73,-618.74"/>
<polygon fill="black" stroke="black" points="490.22,-618.7 492.75,-628.99 497.19,-619.37 490.22,-618.7"/>
<text text-anchor="middle" x="1079" y="-215.8" font-family="Times,serif" font-size="14.00">2</text>
</g>
<!-- ОТПРАВЛЕНО В МИДДЛ&#45;&gt;ОТПРАВЛЕНО В МИДДЛ -->
<g id="edge35" class="edge">
<title>ОТПРАВЛЕНО В МИДДЛ&#45;&gt;ОТПРАВЛЕНО В МИДДЛ</title>
<path fill="none" stroke="black" d="M1706.79,-235.15C1703.45,-244.54 1710.69,-253 1728.5,-253 1739.35,-253 1746.28,-249.86 1749.28,-245.28"/>
<polygon fill="black" stroke="black" points="1752.78,-245.43 1750.21,-235.15 1745.81,-244.79 1752.78,-245.43"/>
<text text-anchor="middle" x="1728.5" y="-256.8" font-family="Times,serif" font-size="14.00">1</text>
</g>
<!-- ПРОВЕРКА В МИДДЛ -->
<g id="node11" class="node">
<title>ПРОВЕРКА В МИДДЛ</title>
<polygon fill="lightblue" stroke="black" points="2058,-235 1900,-235 1900,-199 2058,-199 2058,-235"/>
<text text-anchor="middle" x="1979" y="-213.9" font-family="Times,serif" font-size="12.00">ПРОВЕРКА В МИДДЛ</text>
</g>
<!-- ОТПРАВЛЕНО В МИДДЛ&#45;&gt;ПРОВЕРКА В МИДДЛ -->
<g id="edge36" class="edge">
<title>ОТПРАВЛЕНО В МИДДЛ&#45;&gt;ПРОВЕРКА В МИДДЛ</title>
<path fill="none" stroke="black" d="M1818.12,-200.2C1839.05,-197.99 1861.29,-197.08 1882,-199 1884.55,-199.24 1887.13,-199.51 1889.73,-199.81"/>
<polygon fill="black" stroke="black" points="1889.48,-203.31 1899.84,-201.11 1890.37,-196.36 1889.48,-203.31"/>
<text text-anchor="middle" x="1859" y="-202.8" font-family="Times,serif" font-size="14.00">47520</text>
</g>
<!-- ПРИНЯТО В РАБОТУ ЦОПП&#45;&gt;ВОЗВРАТ НА ДОРАБОТКУ -->
<g id="edge37" class="edge">
<title>ПРИНЯТО В РАБОТУ ЦОПП&#45;&gt;ВОЗВРАТ НА ДОРАБОТКУ</title>
<path fill="none" stroke="black" d="M1038.03,-674.31C1130.65,-675.55 1268.71,-677.39 1362.57,-678.64"/>
<polygon fill="black" stroke="black" points="1362.61,-682.14 1372.65,-678.77 1362.7,-675.14 1362.61,-682.14"/>
<text text-anchor="middle" x="1202" y="-680.8" font-family="Times,serif" font-size="14.00">10745</text>
</g>
<!-- ПРИНЯТО В РАБОТУ ЦОПП&#45;&gt;КРЕДИТНЫЙ АНАЛИЗ -->
<g id="edge38" class="edge">
<title>ПРИНЯТО В РАБОТУ ЦОПП&#45;&gt;КРЕДИТНЫЙ АНАЛИЗ</title>
<path fill="none" stroke="black" d="M1020.06,-654.82C1026.69,-651.05 1032.82,-646.49 1038,-641 1059.74,-617.94 1040.54,-599.67 1056,-572 1070.42,-546.21 1082.41,-546.12 1102,-524 1110.38,-514.54 1110.11,-509.86 1120,-502 1128.09,-495.56 1137.39,-489.79 1146.73,-484.76"/>
<polygon fill="black" stroke="black" points="1148.37,-487.86 1155.67,-480.18 1145.17,-481.63 1148.37,-487.86"/>
<text text-anchor="middle" x="1079" y="-575.8" font-family="Times,serif" font-size="14.00">56310</text>
</g>
<!-- ПРИНЯТО В РАБОТУ ЦОПП&#45;&gt;ОТКАЗ БАНКА ПО ЗАЕМЩИКУ -->
<g id="edge39" class="edge">
<title>ПРИНЯТО В РАБОТУ ЦОПП&#45;&gt;ОТКАЗ БАНКА ПО ЗАЕМЩИКУ</title>
<path fill="none" stroke="black" d="M975.44,-654.8C1021.88,-631.17 1097.37,-592.3 1102,-587 1117.26,-569.53 1101.28,-551.71 1120,-538 1159.3,-509.21 1296.13,-551.14 1339,-528 1398.58,-495.85 1437.02,-421.8 1454.34,-381.44"/>
<polygon fill="black" stroke="black" points="1457.58,-382.77 1458.2,-372.19 1451.12,-380.07 1457.58,-382.77"/>
<text text-anchor="middle" x="1202" y="-541.8" font-family="Times,serif" font-size="14.00">359</text>
</g>
<!-- ПРИНЯТО В РАБОТУ ЦОПП&#45;&gt;ОТКАЗ КЛИЕНТА -->
<g id="edge40" class="edge">
<title>ПРИНЯТО В РАБОТУ ЦОПП&#45;&gt;ОТКАЗ КЛИЕНТА</title>
<path fill="none" stroke="black" d="M1038.29,-686.07C1044.28,-686.75 1050.22,-687.4 1056,-688 1084.38,-690.93 1091.54,-691.05 1120,-693 1329.9,-707.4 1382.62,-709.77 1593,-712 1612.49,-712.21 1633.56,-712.17 1653.12,-712.03"/>
<polygon fill="black" stroke="black" points="1653.22,-715.53 1663.19,-711.95 1653.16,-708.53 1653.22,-715.53"/>
<text text-anchor="middle" x="1320.5" y="-709.8" font-family="Times,serif" font-size="14.00">1</text>
</g>
<!-- ПРИНЯТО В РАБОТУ ЦОПП&#45;&gt;ОТПРАВЛЕНО В БАНК -->
<g id="edge41" class="edge">
<title>ПРИНЯТО В РАБОТУ ЦОПП&#45;&gt;ОТПРАВЛЕНО В БАНК</title>
<path fill="none" stroke="black" d="M839,-678.43C832.91,-678.66 826.87,-678.85 821,-679 740.12,-681.08 648.55,-671.2 582.51,-661.88"/>
<polygon fill="black" stroke="black" points="582.94,-658.4 572.55,-660.45 581.95,-665.33 582.94,-658.4"/>
<text text-anchor="middle" x="711" y="-681.8" font-family="Times,serif" font-size="14.00">22</text>
</g>
<!-- ПРИНЯТО В РАБОТУ ЦОПП&#45;&gt;ОТПРАВЛЕНО В МИДДЛ -->
<g id="edge42" class="edge">
<title>ПРИНЯТО В РАБОТУ ЦОПП&#45;&gt;ОТПРАВЛЕНО В МИДДЛ</title>
<path fill="none" stroke="black" d="M1038.18,-666.37C1216.39,-653.52 1577.55,-623.23 1621,-586 1673.83,-540.74 1711.3,-324.06 1723.35,-245.52"/>
<polygon fill="black" stroke="black" points="1726.84,-245.79 1724.87,-235.38 1719.92,-244.75 1726.84,-245.79"/>
<text text-anchor="middle" x="1320.5" y="-646.8" font-family="Times,serif" font-size="14.00">3155</text>
</g>
<!-- ПРИНЯТО В РАБОТУ ЦОПП&#45;&gt;ЧЕРНОВИК -->
<g id="edge43" class="edge">
<title>ПРИНЯТО В РАБОТУ ЦОПП&#45;&gt;ЧЕРНОВИК</title>
<path fill="none" stroke="black" d="M838.81,-664.33C817.47,-660.99 795.25,-656.38 775,-650 767.18,-647.54 759.15,-644.18 751.55,-640.56"/>
<polygon fill="black" stroke="black" points="753.05,-637.4 742.54,-636.06 749.93,-643.66 753.05,-637.4"/>
<text text-anchor="middle" x="798" y="-663.8" font-family="Times,serif" font-size="14.00">1</text>
</g>
<!-- ПРОВЕРКА В МИДДЛ&#45;&gt;ВОЗВРАТ КЛИЕНТУ -->
<g id="edge44" class="edge">
<title>ПРОВЕРКА В МИДДЛ&#45;&gt;ВОЗВРАТ КЛИЕНТУ</title>
<path fill="none" stroke="black" d="M1968.67,-198.87C1940.37,-146.72 1850.07,0 1729.5,0 262.5,0 262.5,0 262.5,0 169.21,0 108.46,-116.99 85.19,-171.57"/>
<polygon fill="black" stroke="black" points="81.88,-170.41 81.28,-180.99 88.34,-173.09 81.88,-170.41"/>
<text text-anchor="middle" x="938.5" y="-3.8" font-family="Times,serif" font-size="14.00">14739</text>
</g>
<!-- ПРОВЕРКА В МИДДЛ&#45;&gt;ОТПРАВЛЕНО В БАНК -->
<g id="edge45" class="edge">
<title>ПРОВЕРКА В МИДДЛ&#45;&gt;ОТПРАВЛЕНО В БАНК</title>
<path fill="none" stroke="black" d="M1975.76,-235.24C1961.61,-346.21 1880.47,-926 1729.5,-926 937.5,-926 937.5,-926 937.5,-926 670.35,-926 657.78,-861.66 610,-794 577.88,-748.51 629.75,-710.94 592,-670 588.84,-666.58 585.29,-663.61 581.45,-661.05"/>
<polygon fill="black" stroke="black" points="583.07,-657.94 572.65,-656.05 579.62,-664.03 583.07,-657.94"/>
<text text-anchor="middle" x="1202" y="-929.8" font-family="Times,serif" font-size="14.00">32589</text>
</g>
<!-- ПРОВЕРКА В МИДДЛ&#45;&gt;ОТПРАВЛЕНО В МИДДЛ -->
<g id="edge46" class="edge">
<title>ПРОВЕРКА В МИДДЛ&#45;&gt;ОТПРАВЛЕНО В МИДДЛ</title>
<path fill="none" stroke="black" d="M1899.69,-217C1877.03,-217 1851.99,-217 1828.25,-217"/>
<polygon fill="black" stroke="black" points="1828.16,-213.5 1818.16,-217 1828.16,-220.5 1828.16,-213.5"/>
<text text-anchor="middle" x="1859" y="-220.8" font-family="Times,serif" font-size="14.00">167</text>
</g>
<!-- ЧЕРНОВИК&#45;&gt;КРЕДИТ ОДОБРЕН -->
<g id="edge47" class="edge">
<title>ЧЕРНОВИК&#45;&gt;КРЕДИТ ОДОБРЕН</title>
<path fill="none" stroke="black" d="M681.23,-636.01C658.1,-649.39 624.26,-666.55 592,-674 509.13,-693.13 411.3,-689.22 344.28,-682.67"/>
<polygon fill="black" stroke="black" points="344.51,-679.17 334.21,-681.64 343.8,-686.14 344.51,-679.17"/>
<text text-anchor="middle" x="490.5" y="-691.8" font-family="Times,serif" font-size="14.00">9</text>
</g>
<!-- ЧЕРНОВИК&#45;&gt;ОТКАЗ БАНКА ПО ЗАЕМЩИКУ -->
<g id="edge48" class="edge">
<title>ЧЕРНОВИК&#45;&gt;ОТКАЗ БАНКА ПО ЗАЕМЩИКУ</title>
<path fill="none" stroke="black" d="M723.34,-599.96C734.68,-583.11 753.51,-558.19 775,-542 799.8,-523.32 810.54,-526.4 839,-514 963.81,-459.6 988.41,-426.96 1120,-392 1193.81,-372.39 1279.1,-362.88 1346.41,-358.28"/>
<polygon fill="black" stroke="black" points="1346.88,-361.76 1356.63,-357.61 1346.42,-354.77 1346.88,-361.76"/>
<text text-anchor="middle" x="1079" y="-415.8" font-family="Times,serif" font-size="14.00">1</text>
</g>
<!-- ЧЕРНОВИК&#45;&gt;ОТПРАВЛЕНО В БАНК -->
<g id="edge49" class="edge">
<title>ЧЕРНОВИК&#45;&gt;ОТПРАВЛЕНО В БАНК</title>
<path fill="none" stroke="black" d="M664.7,-609.13C658.77,-608.25 652.75,-607.5 647,-607 630.62,-605.58 626.23,-604.34 610,-607 587.62,-610.68 563.77,-618.01 543.38,-625.41"/>
<polygon fill="black" stroke="black" points="542.13,-622.14 533.98,-628.91 544.57,-628.7 542.13,-622.14"/>
<text text-anchor="middle" x="628.5" y="-610.8" font-family="Times,serif" font-size="14.00">3853</text>
</g>
<!-- ЧЕРНОВИК&#45;&gt;ОТПРАВЛЕНО В МИДДЛ -->
<g id="edge50" class="edge">
<title>ЧЕРНОВИК&#45;&gt;ОТПРАВЛЕНО В МИДДЛ</title>
<path fill="none" stroke="black" d="M757.21,-605.98C781.31,-600.1 811.57,-593.54 839,-590 920.17,-579.54 1507.29,-606.97 1575,-561 1684.79,-486.46 1716.36,-313.62 1724.72,-245.42"/>
<polygon fill="black" stroke="black" points="1728.21,-245.73 1725.87,-235.4 1721.25,-244.93 1728.21,-245.73"/>
<text text-anchor="middle" x="1202" y="-591.8" font-family="Times,serif" font-size="14.00">9837</text>
</g>
<!-- ЧЕРНОВИК&#45;&gt;ПРИНЯТО В РАБОТУ ЦОПП -->
<g id="edge51" class="edge">
<title>ЧЕРНОВИК&#45;&gt;ПРИНЯТО В РАБОТУ ЦОПП</title>
<path fill="none" stroke="black" d="M757.12,-619.45C777.08,-621.09 800.6,-624.4 821,-631 829.71,-633.82 830.61,-637.35 839,-641 847.63,-644.76 856.84,-648.31 866.04,-651.6"/>
<polygon fill="black" stroke="black" points="865.01,-654.94 875.6,-654.91 867.3,-648.33 865.01,-654.94"/>
<text text-anchor="middle" x="798" y="-634.8" font-family="Times,serif" font-size="14.00">5</text>
</g>
</g>
</svg>
